<svg width="56" height="56" viewBox="0 0 56 56" fill="none" xmlns="http://www.w3.org/2000/svg">
<path opacity="0.2" d="M44.6249 36.75C45.5327 36.7508 46.4293 36.5498 47.2499 36.1615V45.5C47.2499 45.9641 47.0656 46.4092 46.7374 46.7374C46.4092 47.0656 45.9641 47.25 45.4999 47.25H13.9999C13.5358 47.25 13.0907 47.0656 12.7625 46.7374C12.4343 46.4092 12.2499 45.9641 12.2499 45.5V36.1615C11.3164 36.6033 10.2863 36.8017 9.25543 36.7385C8.22459 36.6753 7.22647 36.3524 6.35388 35.7999C5.48129 35.2475 4.76257 34.4833 4.26455 33.5786C3.76652 32.6738 3.50537 31.6578 3.50537 30.625C3.50537 29.5922 3.76652 28.5762 4.26455 27.6714C4.76257 26.7666 5.48129 26.0025 6.35388 25.45C7.22647 24.8975 8.22459 24.5747 9.25543 24.5115C10.2863 24.4482 11.3164 24.6467 12.2499 25.0884V15.75C12.2499 15.2859 12.4343 14.8407 12.7625 14.5125C13.0907 14.1844 13.5358 14 13.9999 14H24.2134C23.7712 13.0664 23.5723 12.0362 23.6352 11.0051C23.6981 9.97401 24.0208 8.97559 24.5732 8.1027C25.1256 7.22981 25.8898 6.51082 26.7947 6.0126C27.6996 5.51438 28.7158 5.25311 29.7488 5.25311C30.7818 5.25311 31.7981 5.51438 32.703 6.0126C33.6079 6.51082 34.3721 7.22981 34.9245 8.1027C35.4769 8.97559 35.7996 9.97401 35.8625 11.0051C35.9254 12.0362 35.7265 13.0664 35.2843 14H45.4999C45.9641 14 46.4092 14.1844 46.7374 14.5125C47.0656 14.8407 47.2499 15.2859 47.2499 15.75V25.0884C46.42 24.6957 45.5124 24.4947 44.5942 24.5001C43.6761 24.5055 42.7709 24.7173 41.9457 25.1197C41.1204 25.5222 40.3962 26.105 39.8266 26.8251C39.257 27.5452 38.8565 28.3842 38.6549 29.2799C38.4533 30.1757 38.4556 31.1053 38.6617 32C38.8678 32.8947 39.2725 33.7317 39.8457 34.4489C40.4189 35.1661 41.146 35.7453 41.9733 36.1436C42.8006 36.5419 43.7068 36.7492 44.6249 36.75Z" fill="#A9FC81"/>
<path d="M48.1838 34.6806C47.9343 34.5232 47.6491 34.4315 47.3546 34.4139C47.0601 34.3963 46.766 34.4534 46.4995 34.58C45.8326 34.8953 45.0969 35.037 44.3607 34.9917C43.6244 34.9465 42.9116 34.7158 42.2884 34.3212C41.6652 33.9265 41.1519 33.3807 40.7962 32.7345C40.4405 32.0883 40.254 31.3626 40.254 30.625C40.254 29.8873 40.4405 29.1617 40.7962 28.5154C41.1519 27.8692 41.6652 27.3234 42.2884 26.9288C42.9116 26.5341 43.6244 26.3035 44.3607 26.2582C45.0969 26.213 45.8326 26.3546 46.4995 26.67C46.7663 26.7966 47.0607 26.8536 47.3555 26.8358C47.6503 26.8179 47.9357 26.7258 48.1853 26.5679C48.4349 26.4101 48.6404 26.1916 48.7828 25.9329C48.9252 25.6742 48.9999 25.3837 48.9998 25.0884V15.75C48.9998 14.8217 48.631 13.9315 47.9747 13.2751C47.3183 12.6187 46.428 12.25 45.4998 12.25H37.5767C37.6092 11.9594 37.6253 11.6673 37.6248 11.375C37.623 10.2991 37.4016 9.23499 36.9744 8.24765C36.5471 7.26031 35.9228 6.37054 35.1398 5.63278C34.0552 4.61423 32.7043 3.92376 31.2435 3.64134C29.7827 3.35892 28.2718 3.49612 26.8857 4.03703C25.4997 4.57794 24.2952 5.50044 23.4119 6.69768C22.5285 7.89492 22.0024 9.31791 21.8945 10.8018C21.8609 11.2845 21.8711 11.7692 21.9251 12.25H13.9998C13.0715 12.25 12.1813 12.6187 11.5249 13.2751C10.8685 13.9315 10.4998 14.8217 10.4998 15.75V22.7981C10.2093 22.7655 9.91713 22.7495 9.62479 22.75C8.54926 22.7517 7.48542 22.973 6.49842 23.4003C5.51142 23.8276 4.62205 24.4519 3.88479 25.235C3.14224 26.0193 2.57047 26.9492 2.20562 27.9658C1.84077 28.9824 1.69077 30.0637 1.7651 31.1412C1.8905 33.0386 2.6967 34.8269 4.03544 36.1773C5.37418 37.5277 7.15544 38.3494 9.05166 38.4912C9.5343 38.5248 10.019 38.5146 10.4998 38.4606V45.5C10.4998 46.4282 10.8685 47.3185 11.5249 47.9748C12.1813 48.6312 13.0715 49 13.9998 49H45.4998C46.428 49 47.3183 48.6312 47.9747 47.9748C48.631 47.3185 48.9998 46.4282 48.9998 45.5V36.1615C49 35.8659 48.9252 35.575 48.7825 35.316C48.6399 35.057 48.4339 34.8384 48.1838 34.6806ZM45.4998 45.5H13.9998V36.1615C13.9999 35.8662 13.9252 35.5757 13.7828 35.317C13.6404 35.0583 13.4349 34.8399 13.1853 34.682C12.9357 34.5241 12.6503 34.432 12.3555 34.4142C12.0607 34.3963 11.7663 34.4534 11.4995 34.58C10.8326 34.8953 10.0969 35.037 9.36066 34.9917C8.62441 34.9465 7.91155 34.7158 7.28836 34.3212C6.66517 33.9265 6.15187 33.3807 5.7962 32.7345C5.44052 32.0883 5.25402 31.3626 5.25402 30.625C5.25402 29.8873 5.44052 29.1617 5.7962 28.5154C6.15187 27.8692 6.66517 27.3234 7.28836 26.9288C7.91155 26.5341 8.62441 26.3035 9.36066 26.2582C10.0969 26.213 10.8326 26.3546 11.4995 26.67C11.7663 26.7966 12.0607 26.8536 12.3555 26.8358C12.6503 26.8179 12.9357 26.7258 13.1853 26.5679C13.4349 26.4101 13.6404 26.1916 13.7828 25.9329C13.9252 25.6742 13.9999 25.3837 13.9998 25.0884V15.75H24.2132C24.5085 15.7501 24.7991 15.6754 25.0577 15.533C25.3164 15.3906 25.5349 15.185 25.6928 14.9355C25.8506 14.6859 25.9428 14.4005 25.9606 14.1057C25.9784 13.8109 25.9214 13.5164 25.7948 13.2497C25.4794 12.5828 25.3378 11.8471 25.383 11.1108C25.4283 10.3746 25.6589 9.66174 26.0536 9.03854C26.4482 8.41535 26.994 7.90206 27.6403 7.54638C28.2865 7.19071 29.0121 7.0042 29.7498 7.0042C30.4874 7.0042 31.2131 7.19071 31.8593 7.54638C32.5055 7.90206 33.0513 8.41535 33.446 9.03854C33.8406 9.66174 34.0713 10.3746 34.1165 11.1108C34.1618 11.8471 34.0202 12.5828 33.7048 13.2497C33.5782 13.5164 33.5211 13.8109 33.539 14.1057C33.5568 14.4005 33.649 14.6859 33.8068 14.9355C33.9647 15.185 34.1831 15.3906 34.4418 15.533C34.7005 15.6754 34.991 15.7501 35.2863 15.75H45.4998V22.8003C45.0191 22.7452 44.5343 22.735 44.0517 22.7697C42.0149 22.9139 40.1138 23.8436 38.7493 25.3626C37.3849 26.8816 36.6638 28.8712 36.7381 30.9117C36.8125 32.9522 37.6765 34.8841 39.1478 36.2998C40.6192 37.7155 42.5829 38.5043 44.6248 38.5C44.9171 38.5005 45.2093 38.4844 45.4998 38.4518V45.5Z" fill="#A9FC81"/>
</svg>
