<svg width="56" height="56" viewBox="0 0 56 56" fill="none" xmlns="http://www.w3.org/2000/svg">
<path opacity="0.2" d="M45.4998 22.75C45.5021 25.4016 44.9008 28.019 43.7414 30.4037C42.5821 32.7884 40.895 34.8779 38.8082 36.5138C38.1709 37.0077 37.6544 37.6402 37.2978 38.3633C36.9411 39.0864 36.7537 39.8812 36.7498 40.6875V42C36.7498 42.4642 36.5654 42.9093 36.2372 43.2375C35.909 43.5657 35.4639 43.75 34.9998 43.75H20.9998C20.5357 43.75 20.0905 43.5657 19.7623 43.2375C19.4342 42.9093 19.2498 42.4642 19.2498 42V40.6875C19.2489 39.8857 19.0653 39.0946 18.7128 38.3744C18.3602 37.6542 17.8481 37.0238 17.2154 36.5313C15.135 34.9061 13.45 32.8307 12.2868 30.4608C11.1237 28.091 10.5127 25.4883 10.4998 22.8485C10.4473 13.3635 18.0948 5.46878 27.5776 5.25003C29.911 5.19372 32.2321 5.60477 34.4043 6.45898C36.5765 7.31319 38.5558 8.5933 40.2258 10.224C41.8958 11.8546 43.2227 13.8029 44.1285 15.9541C45.0342 18.1053 45.5005 20.4159 45.4998 22.75Z" fill="#A9FC81"/>
<path d="M38.4998 50.75C38.4998 51.2141 38.3154 51.6592 37.9872 51.9874C37.659 52.3156 37.2139 52.5 36.7498 52.5H19.2498C18.7857 52.5 18.3406 52.3156 18.0124 51.9874C17.6842 51.6592 17.4998 51.2141 17.4998 50.75C17.4998 50.2858 17.6842 49.8407 18.0124 49.5125C18.3406 49.1843 18.7857 49 19.2498 49H36.7498C37.2139 49 37.659 49.1843 37.9872 49.5125C38.3154 49.8407 38.4998 50.2858 38.4998 50.75ZM47.2498 22.75C47.2573 25.6673 46.5983 28.5478 45.323 31.1717C44.0476 33.7955 42.1897 36.0933 39.891 37.8897C39.4612 38.2191 39.1124 38.6425 38.8713 39.1274C38.6302 39.6123 38.5031 40.1459 38.4998 40.6875V42C38.4998 42.9282 38.131 43.8185 37.4747 44.4748C36.8183 45.1312 35.9281 45.5 34.9998 45.5H20.9998C20.0715 45.5 19.1813 45.1312 18.5249 44.4748C17.8685 43.8185 17.4998 42.9282 17.4998 42V40.6875C17.4994 40.1524 17.3764 39.6245 17.1402 39.1444C16.9039 38.6644 16.5607 38.2448 16.137 37.9181C13.844 36.1323 11.9874 33.8483 10.7076 31.239C9.42773 28.6297 8.75825 25.7634 8.7498 22.8572C8.69292 12.4315 17.1192 3.74935 27.536 3.49997C30.1027 3.43812 32.6559 3.89034 35.0452 4.83001C37.4345 5.76968 39.6117 7.17782 41.4486 8.97155C43.2856 10.7653 44.7451 12.9083 45.7414 15.2746C46.7377 17.6409 47.2505 20.1825 47.2498 22.75ZM43.7498 22.75C43.7504 20.6492 43.3308 18.5696 42.5156 16.6335C41.7004 14.6974 40.5061 12.9439 39.003 11.4763C37.4999 10.0087 35.7184 8.85658 33.7634 8.08783C31.8084 7.31908 29.7193 6.9492 27.6192 6.99997C19.0879 7.20122 12.2039 14.304 12.2498 22.8353C12.2578 25.2122 12.8063 27.5561 13.8538 29.6898C14.9013 31.8235 16.4204 33.6909 18.296 35.1509C19.1392 35.8064 19.8212 36.6461 20.2898 37.6057C20.7585 38.5654 21.0013 39.6195 20.9998 40.6875V42H34.9998V40.6875C35.0022 39.6165 35.2492 38.5602 35.722 37.5991C36.1947 36.6381 36.8807 35.7978 37.7276 35.1422C39.6091 33.6718 41.1297 31.791 42.1734 29.6433C43.2171 27.4956 43.7563 25.1378 43.7498 22.75ZM40.2257 20.7068C39.772 18.1722 38.5525 15.8374 36.7315 14.0168C34.9105 12.1962 32.5755 10.9773 30.0407 10.524C29.8141 10.4858 29.5821 10.4926 29.3581 10.5441C29.1341 10.5955 28.9224 10.6906 28.7351 10.8238C28.5478 10.9571 28.3886 11.1259 28.2666 11.3207C28.1445 11.5155 28.0621 11.7324 28.0239 11.959C27.9857 12.1857 27.9925 12.4176 28.0439 12.6417C28.0953 12.8657 28.1904 13.0774 28.3237 13.2647C28.4569 13.452 28.6257 13.6112 28.8205 13.7332C29.0153 13.8552 29.2322 13.9377 29.4589 13.9759C33.0835 14.5862 36.1592 17.6618 36.7739 21.2931C36.8431 21.7007 37.0544 22.0706 37.3703 22.3372C37.6863 22.6039 38.0864 22.7501 38.4998 22.75C38.5987 22.7494 38.6974 22.7413 38.7951 22.7259C39.2525 22.6478 39.6602 22.3912 39.9285 22.0126C40.1968 21.634 40.3037 21.1643 40.2257 20.7068Z" fill="#A9FC81"/>
</svg>
