<svg width="56" height="56" viewBox="0 0 56 56" fill="none" xmlns="http://www.w3.org/2000/svg">
<path opacity="0.2" d="M38.4998 24.5L16.2617 46.7381C15.9335 47.0661 15.4886 47.2503 15.0246 47.2503C14.5607 47.2503 14.1158 47.0661 13.7876 46.7381L9.26167 42.2188C8.93373 41.8906 8.74951 41.4456 8.74951 40.9817C8.74951 40.5178 8.93373 40.0728 9.26167 39.7447L31.4998 17.5L38.4998 24.5Z" fill="#A9FC81"/>
<path d="M54.2502 33.25C54.2502 33.7141 54.0658 34.1592 53.7376 34.4874C53.4094 34.8156 52.9643 35 52.5002 35H49.0002V38.5C49.0002 38.9641 48.8158 39.4092 48.4876 39.7374C48.1594 40.0656 47.7143 40.25 47.2502 40.25C46.7861 40.25 46.3409 40.0656 46.0128 39.7374C45.6846 39.4092 45.5002 38.9641 45.5002 38.5V35H42.0002C41.5361 35 41.0909 34.8156 40.7628 34.4874C40.4346 34.1592 40.2502 33.7141 40.2502 33.25C40.2502 32.7859 40.4346 32.3408 40.7628 32.0126C41.0909 31.6844 41.5361 31.5 42.0002 31.5H45.5002V28C45.5002 27.5359 45.6846 27.0908 46.0128 26.7626C46.3409 26.4344 46.7861 26.25 47.2502 26.25C47.7143 26.25 48.1594 26.4344 48.4876 26.7626C48.8158 27.0908 49.0002 27.5359 49.0002 28V31.5H52.5002C52.9643 31.5 53.4094 31.6844 53.7376 32.0126C54.0658 32.3408 54.2502 32.7859 54.2502 33.25ZM12.2502 15.75H15.7502V19.25C15.7502 19.7141 15.9346 20.1592 16.2628 20.4874C16.5909 20.8156 17.0361 21 17.5002 21C17.9643 21 18.4094 20.8156 18.7376 20.4874C19.0658 20.1592 19.2502 19.7141 19.2502 19.25V15.75H22.7502C23.2143 15.75 23.6594 15.5656 23.9876 15.2374C24.3158 14.9092 24.5002 14.4641 24.5002 14C24.5002 13.5359 24.3158 13.0908 23.9876 12.7626C23.6594 12.4344 23.2143 12.25 22.7502 12.25H19.2502V8.75C19.2502 8.28587 19.0658 7.84075 18.7376 7.51256C18.4094 7.18437 17.9643 7 17.5002 7C17.0361 7 16.5909 7.18437 16.2628 7.51256C15.9346 7.84075 15.7502 8.28587 15.7502 8.75V12.25H12.2502C11.7861 12.25 11.3409 12.4344 11.0128 12.7626C10.6846 13.0908 10.5002 13.5359 10.5002 14C10.5002 14.4641 10.6846 14.9092 11.0128 15.2374C11.3409 15.5656 11.7861 15.75 12.2502 15.75ZM40.2502 42H38.5002V40.25C38.5002 39.7859 38.3158 39.3408 37.9876 39.0126C37.6594 38.6844 37.2143 38.5 36.7502 38.5C36.2861 38.5 35.8409 38.6844 35.5128 39.0126C35.1846 39.3408 35.0002 39.7859 35.0002 40.25V42H33.2502C32.7861 42 32.3409 42.1844 32.0128 42.5126C31.6846 42.8408 31.5002 43.2859 31.5002 43.75C31.5002 44.2141 31.6846 44.6592 32.0128 44.9874C32.3409 45.3156 32.7861 45.5 33.2502 45.5H35.0002V47.25C35.0002 47.7141 35.1846 48.1592 35.5128 48.4874C35.8409 48.8156 36.2861 49 36.7502 49C37.2143 49 37.6594 48.8156 37.9876 48.4874C38.3158 48.1592 38.5002 47.7141 38.5002 47.25V45.5H40.2502C40.7143 45.5 41.1594 45.3156 41.4876 44.9874C41.8158 44.6592 42.0002 44.2141 42.0002 43.75C42.0002 43.2859 41.8158 42.8408 41.4876 42.5126C41.1594 42.1844 40.7143 42 40.2502 42ZM47.9743 17.5L17.5002 47.9741C16.8439 48.6299 15.954 48.9984 15.0261 48.9984C14.0983 48.9984 13.2084 48.6299 12.5521 47.9741L8.02394 43.4503C7.69885 43.1253 7.44097 42.7394 7.26503 42.3147C7.08909 41.89 6.99854 41.4349 6.99854 40.9752C6.99854 40.5155 7.08909 40.0603 7.26503 39.6356C7.44097 39.2109 7.69885 38.825 8.02394 38.5L38.5002 8.02594C38.8252 7.70085 39.2111 7.44297 39.6358 7.26703C40.0605 7.09109 40.5157 7.00053 40.9754 7.00053C41.435 7.00053 41.8902 7.09109 42.3149 7.26703C42.7396 7.44297 43.1255 7.70085 43.4505 8.02594L47.9743 12.5497C48.2993 12.8747 48.5572 13.2606 48.7332 13.6853C48.9091 14.11 48.9997 14.5651 48.9997 15.0248C48.9997 15.4845 48.9091 15.9397 48.7332 16.3644C48.5572 16.7891 48.2993 17.175 47.9743 17.5ZM36.0239 24.5L31.5002 19.9741L10.5002 40.9741L15.0239 45.5L36.0239 24.5ZM45.5002 15.0259L40.9743 10.5L33.9743 17.5L38.5002 22.0259L45.5002 15.0259Z" fill="#A9FC81"/>
</svg>
