<svg width="56" height="56" viewBox="0 0 56 56" fill="none" xmlns="http://www.w3.org/2000/svg">
<path opacity="0.2" d="M36.75 31.5C36.75 33.2306 36.2368 34.9223 35.2754 36.3612C34.3139 37.8002 32.9473 38.9217 31.3485 39.5839C29.7496 40.2462 27.9903 40.4195 26.293 40.0819C24.5956 39.7443 23.0365 38.9109 21.8128 37.6872C20.5891 36.4635 19.7558 34.9044 19.4181 33.207C19.0805 31.5097 19.2538 29.7504 19.9161 28.1515C20.5783 26.5527 21.6998 25.1861 23.1388 24.2246C24.5777 23.2632 26.2694 22.75 28 22.75C30.3206 22.75 32.5462 23.6719 34.1872 25.3128C35.8281 26.9538 36.75 29.1794 36.75 31.5ZM14 12.25C12.6155 12.25 11.2622 12.6605 10.111 13.4297C8.95987 14.1989 8.06266 15.2921 7.53285 16.5712C7.00303 17.8503 6.86441 19.2578 7.13451 20.6156C7.4046 21.9735 8.07129 23.2208 9.05026 24.1997C10.0292 25.1787 11.2765 25.8454 12.6344 26.1155C13.9922 26.3856 15.3997 26.247 16.6788 25.7172C17.9579 25.1873 19.0511 24.2901 19.8203 23.139C20.5895 21.9878 21 20.6345 21 19.25C21 17.3935 20.2625 15.613 18.9498 14.3003C17.637 12.9875 15.8565 12.25 14 12.25ZM42 12.25C40.6155 12.25 39.2622 12.6605 38.111 13.4297C36.9599 14.1989 36.0627 15.2921 35.5328 16.5712C35.003 17.8503 34.8644 19.2578 35.1345 20.6156C35.4046 21.9735 36.0713 23.2208 37.0503 24.1997C38.0292 25.1787 39.2765 25.8454 40.6344 26.1155C41.9922 26.3856 43.3997 26.247 44.6788 25.7172C45.9579 25.1873 47.0511 24.2901 47.8203 23.139C48.5895 21.9878 49 20.6345 49 19.25C49 17.3935 48.2625 15.613 46.9497 14.3003C45.637 12.9875 43.8565 12.25 42 12.25Z" fill="#A9FC81"/>
<path d="M53.5502 32.9C53.3663 33.0379 53.1571 33.1382 52.9345 33.1953C52.7119 33.2523 52.4802 33.2649 52.2527 33.2324C52.0252 33.1999 51.8063 33.1229 51.6086 33.0058C51.4108 32.8887 51.2381 32.7339 51.1002 32.55C50.0454 31.1322 48.6725 29.9819 47.0919 29.1916C45.5113 28.4013 43.7673 27.9931 42.0002 28C41.536 28 41.0909 27.8156 40.7627 27.4874C40.4345 27.1593 40.2502 26.7141 40.2502 26.25C40.2502 25.7859 40.4345 25.3408 40.7627 25.0126C41.0909 24.6844 41.536 24.5 42.0002 24.5C42.9821 24.4999 43.9443 24.2245 44.7775 23.7049C45.6107 23.1854 46.2815 22.4426 46.7137 21.561C47.146 20.6793 47.3223 19.6941 47.2226 18.7173C47.123 17.7404 46.7514 16.8111 46.1501 16.0349C45.5487 15.2586 44.7418 14.6666 43.8208 14.326C42.8999 13.9854 41.9019 13.9099 40.9402 14.108C39.9785 14.3062 39.0916 14.7701 38.3804 15.447C37.6691 16.1239 37.1619 16.9868 36.9164 17.9375C36.859 18.1601 36.7582 18.3693 36.62 18.553C36.4817 18.7367 36.3086 18.8913 36.1105 19.0081C35.9125 19.1249 35.6934 19.2016 35.4657 19.2337C35.238 19.2658 35.0062 19.2528 34.7836 19.1953C34.561 19.1379 34.3518 19.0371 34.1681 18.8988C33.9844 18.7606 33.8298 18.5875 33.713 18.3894C33.5962 18.1914 33.5195 17.9722 33.4874 17.7446C33.4553 17.5169 33.4683 17.2851 33.5258 17.0625C33.8665 15.7441 34.5102 14.5235 35.4057 13.4976C36.3012 12.4718 37.4237 11.6692 38.684 11.1535C39.9443 10.6379 41.3075 10.4235 42.6653 10.5274C44.023 10.6313 45.3377 11.0507 46.5048 11.7522C47.672 12.4536 48.6593 13.4178 49.3882 14.5679C50.1171 15.7181 50.5676 17.0225 50.7036 18.3774C50.8397 19.7322 50.6577 21.1002 50.1721 22.3723C49.6865 23.6445 48.9107 24.7858 47.9064 25.7053C50.286 26.7356 52.3546 28.3706 53.9067 30.4478C54.0446 30.6321 54.1448 30.8418 54.2015 31.0649C54.2582 31.288 54.2703 31.5201 54.2372 31.7479C54.2041 31.9757 54.1264 32.1947 54.0085 32.3924C53.8906 32.5901 53.7348 32.7626 53.5502 32.9ZM41.7639 46.375C41.8861 46.5742 41.9671 46.7959 42.0023 47.0269C42.0374 47.258 42.0259 47.4937 41.9684 47.7202C41.9109 47.9467 41.8087 48.1594 41.6677 48.3458C41.5267 48.5322 41.3498 48.6884 41.1474 48.8053C40.9451 48.9222 40.7214 48.9973 40.4895 49.0264C40.2576 49.0554 40.0222 49.0377 39.7973 48.9743C39.5724 48.9109 39.3624 48.803 39.1799 48.6572C38.9973 48.5113 38.8458 48.3304 38.7342 48.125C37.6317 46.2589 36.0617 44.7123 34.1792 43.638C32.2967 42.5637 30.1666 41.9987 27.9991 41.9987C25.8316 41.9987 23.7015 42.5637 21.819 43.638C19.9364 44.7123 18.3665 46.2589 17.2639 48.125C17.1545 48.3341 17.004 48.519 16.8213 48.6684C16.6386 48.8178 16.4275 48.9288 16.2009 48.9945C15.9742 49.0603 15.7366 49.0795 15.5023 49.0511C15.268 49.0226 15.0418 48.947 14.8375 48.8289C14.6332 48.7108 14.4548 48.5526 14.3132 48.3638C14.1716 48.1749 14.0697 47.9594 14.0135 47.7302C13.9574 47.5009 13.9482 47.2627 13.9865 47.0298C14.0248 46.7969 14.1098 46.5742 14.2364 46.375C15.933 43.4599 18.52 41.1659 21.6171 39.83C19.8743 38.4957 18.5935 36.6488 17.9547 34.549C17.3159 32.4492 17.3512 30.2019 18.0556 28.1232C18.76 26.0444 20.0981 24.2387 21.8819 22.9597C23.6656 21.6808 25.8053 20.993 28.0002 20.993C30.195 20.993 32.3347 21.6808 34.1185 22.9597C35.9022 24.2387 37.2403 26.0444 37.9447 28.1232C38.6491 30.2019 38.6844 32.4492 38.0456 34.549C37.4068 36.6488 36.126 38.4957 34.3833 39.83C37.4804 41.1659 40.0673 43.4599 41.7639 46.375ZM28.0002 38.5C29.3846 38.5 30.738 38.0895 31.8892 37.3203C33.0403 36.5511 33.9375 35.4579 34.4673 34.1788C34.9971 32.8997 35.1358 31.4922 34.8657 30.1344C34.5956 28.7765 33.9289 27.5292 32.9499 26.5503C31.971 25.5713 30.7237 24.9046 29.3658 24.6345C28.0079 24.3644 26.6005 24.503 25.3214 25.0328C24.0423 25.5627 22.9491 26.4599 22.1799 27.611C21.4107 28.7622 21.0002 30.1155 21.0002 31.5C21.0002 33.3565 21.7377 35.137 23.0504 36.4498C24.3632 37.7625 26.1437 38.5 28.0002 38.5ZM15.7502 26.25C15.7502 25.7859 15.5658 25.3408 15.2376 25.0126C14.9094 24.6844 14.4643 24.5 14.0002 24.5C13.0183 24.4999 12.0561 24.2245 11.2229 23.7049C10.3897 23.1854 9.71884 22.4426 9.28662 21.561C8.8544 20.6793 8.6781 19.6941 8.77773 18.7173C8.87737 17.7404 9.24896 16.8111 9.85029 16.0349C10.4516 15.2586 11.2586 14.6666 12.1795 14.326C13.1005 13.9854 14.0985 13.9099 15.0602 14.108C16.0219 14.3062 16.9087 14.7701 17.62 15.447C18.3313 16.1239 18.8384 16.9868 19.0839 17.9375C19.2 18.3871 19.4899 18.7722 19.8898 19.0081C20.2898 19.244 20.7671 19.3113 21.2167 19.1953C21.6664 19.0793 22.0515 18.7894 22.2874 18.3894C22.5233 17.9894 22.5906 17.5121 22.4746 17.0625C22.1338 15.7441 21.4901 14.5235 20.5946 13.4976C19.6992 12.4718 18.5766 11.6692 17.3163 11.1535C16.056 10.6379 14.6928 10.4235 13.3351 10.5274C11.9774 10.6313 10.6626 11.0507 9.49551 11.7522C8.32839 12.4536 7.34109 13.4178 6.61216 14.5679C5.88323 15.7181 5.4328 17.0225 5.2967 18.3774C5.1606 19.7322 5.3426 21.1002 5.82821 22.3723C6.31382 23.6445 7.08963 24.7858 8.09393 25.7053C5.71673 26.7366 3.65049 28.3715 2.10018 30.4478C1.82141 30.8191 1.70156 31.286 1.76699 31.7456C1.83242 32.2053 2.07778 32.6201 2.44908 32.8989C2.82038 33.1777 3.28722 33.2975 3.74689 33.2321C4.20656 33.1667 4.62141 32.9213 4.90018 32.55C5.95496 31.1322 7.32789 29.9819 8.90846 29.1916C10.489 28.4013 12.2331 27.9931 14.0002 28C14.4643 28 14.9094 27.8156 15.2376 27.4874C15.5658 27.1593 15.7502 26.7141 15.7502 26.25Z" fill="#A9FC81"/>
</svg>
