<svg width="56" height="56" viewBox="0 0 56 56" fill="none" xmlns="http://www.w3.org/2000/svg">
<path opacity="0.2" d="M52.5 28L42 36.75H14L3.5 28L14 19.25H42L52.5 28Z" fill="#A9FC81"/>
<path d="M15.12 20.5953L6.23434 28L15.12 35.4047C15.3016 35.5501 15.4525 35.7303 15.5636 35.9347C15.6748 36.1391 15.7441 36.3637 15.7675 36.5952C15.7908 36.8267 15.7678 37.0606 15.6997 37.2831C15.6315 37.5056 15.5197 37.7123 15.3708 37.8911C15.2218 38.0698 15.0387 38.2171 14.8322 38.3243C14.6256 38.4314 14.3997 38.4963 14.1678 38.5151C13.9359 38.5339 13.7025 38.5063 13.4814 38.4338C13.2602 38.3614 13.0558 38.2456 12.88 38.0931L2.37996 29.3431C2.18294 29.1789 2.02443 28.9733 1.91565 28.7411C1.80687 28.5088 1.75049 28.2554 1.75049 27.9989C1.75049 27.7424 1.80687 27.489 1.91565 27.2568C2.02443 27.0245 2.18294 26.8189 2.37996 26.6547L12.88 17.9047C13.2368 17.6076 13.6969 17.4645 14.1593 17.5068C14.6216 17.549 15.0482 17.7732 15.3453 18.13C15.6423 18.4868 15.7855 18.947 15.7432 19.4093C15.7009 19.8717 15.4768 20.2983 15.12 20.5953ZM53.62 26.6547L43.12 17.9047C42.9433 17.7576 42.7394 17.6468 42.5199 17.5785C42.3004 17.5102 42.0696 17.4858 41.8406 17.5068C41.6117 17.5277 41.3892 17.5935 41.1857 17.7004C40.9822 17.8074 40.8017 17.9533 40.6547 18.13C40.3576 18.4868 40.2145 18.947 40.2567 19.4093C40.299 19.8717 40.5232 20.2983 40.88 20.5953L49.7656 28L40.88 35.4047C40.6983 35.5501 40.5475 35.7303 40.4363 35.9347C40.3251 36.1391 40.2558 36.3637 40.2325 36.5952C40.2091 36.8267 40.2322 37.0606 40.3003 37.2831C40.3684 37.5056 40.4802 37.7123 40.6291 37.8911C40.7781 38.0698 40.9612 38.2171 41.1678 38.3243C41.3743 38.4314 41.6002 38.4963 41.8321 38.5151C42.0641 38.5339 42.2974 38.5063 42.5186 38.4338C42.7397 38.3614 42.9441 38.2456 43.12 38.0931L53.62 29.3431C53.817 29.1789 53.9755 28.9733 54.0843 28.7411C54.1931 28.5088 54.2494 28.2554 54.2494 27.9989C54.2494 27.7424 54.1931 27.489 54.0843 27.2568C53.9755 27.0245 53.817 26.8189 53.62 26.6547ZM35.5972 7.105C35.3811 7.02657 35.1518 6.99146 34.9222 7.00167C34.6926 7.01188 34.4672 7.06722 34.259 7.16451C34.0508 7.26181 33.8638 7.39917 33.7087 7.56874C33.5536 7.73831 33.4334 7.93678 33.355 8.15281L19.355 46.6528C19.2762 46.869 19.2408 47.0985 19.2509 47.3284C19.2609 47.5582 19.3162 47.7838 19.4135 47.9923C19.5108 48.2007 19.6483 48.3879 19.818 48.5432C19.9878 48.6985 20.1865 48.8188 20.4028 48.8972C20.5945 48.9653 20.7965 49.0001 21 49C21.3594 49 21.71 48.8894 22.0043 48.6831C22.2986 48.4769 22.5223 48.185 22.645 47.8472L36.645 9.34718C36.7234 9.13116 36.7585 8.9018 36.7483 8.67221C36.7381 8.44262 36.6827 8.21728 36.5854 8.00907C36.4881 7.80087 36.3508 7.61386 36.1812 7.45874C36.0116 7.30362 35.8132 7.18342 35.5972 7.105Z" fill="#A9FC81"/>
</svg>
