<svg width="332" height="61" viewBox="0 0 332 61" fill="none" xmlns="http://www.w3.org/2000/svg">
<path d="M30.25 0C13.543 0 0 13.544 0 30.25C0 46.957 13.543 60.5 30.25 60.5C46.957 60.5 60.5 46.957 60.5 30.25C60.5 13.544 46.957 0 30.25 0ZM6.078 21.912C7 20.989 8.494 20.989 9.416 21.91C10.338 22.832 10.338 24.326 9.418 25.249C8.496 26.172 7.001 26.172 6.08 25.25C5.157 24.329 5.156 22.834 6.078 21.912ZM42.04 23.385C42.04 23.381 42.032 23.377 42.032 23.373C42.034 22.931 42.309 20.139 39.639 17.469C36.969 14.799 33.969 15.281 33.969 15.281L33.967 15.272C33.93 15.273 33.893 15.265 33.856 15.265C33.819 15.265 33.782 15.274 33.744 15.273C33.741 15.273 33.737 15.281 33.733 15.281C33.29 15.279 30.499 15.004 27.829 17.674C25.158 20.344 25.64 23.345 25.64 23.345L25.632 23.347C25.633 23.393 25.623 23.439 25.623 23.485C25.622 23.526 25.632 23.566 25.631 23.608H25.64C25.64 23.608 25.159 26.61 27.829 29.28C30.392 31.843 33.062 31.692 33.663 31.675C34.817 31.629 35.986 32.032 36.867 32.913C37.707 33.753 38.124 34.854 38.12 35.955C38.12 36 38.108 36.046 38.107 36.091C38.099 36.315 38.086 36.54 38.043 36.76C37.888 37.575 37.496 38.353 36.866 38.983C35.983 39.865 34.812 40.269 33.657 40.221C33.042 40.203 30.384 40.063 27.83 42.617C25.159 45.287 25.642 48.287 25.642 48.287L25.632 48.289C25.649 48.846 25.56 49.404 25.361 49.933C25.355 49.947 25.353 49.962 25.348 49.975C25.256 50.21 25.138 50.436 25.003 50.655C24.983 50.687 24.971 50.723 24.95 50.755C24.79 51.001 24.604 51.234 24.389 51.449C23.074 52.765 21.121 53.029 19.532 52.277C19.099 52.072 18.688 51.808 18.331 51.45C18.302 51.421 18.283 51.386 18.255 51.356C18.076 51.167 17.911 50.97 17.774 50.76C17.74 50.707 17.718 50.649 17.687 50.595C17.569 50.395 17.458 50.192 17.375 49.979C17.364 49.953 17.36 49.926 17.351 49.899C17.161 49.38 17.073 48.835 17.089 48.289H17.079C17.079 48.289 17.559 45.287 14.891 42.617C12.22 39.947 9.428 40.222 8.985 40.222C8.982 40.222 8.979 40.216 8.975 40.216C7.847 40.24 6.712 39.831 5.852 38.971C4.179 37.298 4.181 34.584 5.853 32.912C7.526 31.239 10.239 31.238 11.913 32.912C12.772 33.772 13.182 34.907 13.157 36.035C13.157 36.038 13.165 36.04 13.163 36.044C13.163 36.487 12.888 39.279 15.559 41.949C18.229 44.619 21.228 44.138 21.228 44.138L21.23 44.147C21.274 44.146 21.317 44.156 21.361 44.156C21.405 44.156 21.448 44.146 21.492 44.147V44.136C21.492 44.136 24.493 44.617 27.164 41.947C29.834 39.278 29.558 36.487 29.557 36.044C29.557 36.04 29.565 36.037 29.564 36.034C29.563 36.007 29.57 35.98 29.57 35.953C29.57 35.922 29.562 35.891 29.563 35.86C29.563 35.856 29.557 35.853 29.557 35.85C29.557 35.406 29.832 32.614 27.162 29.945C24.492 27.275 21.491 27.756 21.491 27.756L21.49 27.747C20.937 27.764 20.385 27.675 19.86 27.479C19.841 27.472 19.822 27.469 19.803 27.462C19.574 27.373 19.354 27.256 19.139 27.126C19.101 27.103 19.06 27.089 19.023 27.065C18.778 26.905 18.545 26.72 18.33 26.504C17.076 25.251 16.763 23.411 17.391 21.863C17.479 21.647 17.595 21.441 17.72 21.238C17.744 21.199 17.758 21.156 17.784 21.118C17.94 20.88 18.124 20.655 18.333 20.446C18.548 20.231 18.78 20.046 19.024 19.887C19.071 19.857 19.122 19.839 19.17 19.81C19.374 19.687 19.583 19.575 19.801 19.49C19.833 19.478 19.866 19.473 19.899 19.461C20.14 19.373 20.385 19.304 20.636 19.261C20.646 19.259 20.656 19.26 20.665 19.258C20.937 19.213 21.213 19.195 21.489 19.203C21.49 19.203 21.491 19.203 21.492 19.203V19.193C21.492 19.193 24.493 19.674 27.163 17.004C29.833 14.334 29.558 11.543 29.558 11.099C29.558 11.097 29.563 11.094 29.564 11.091C29.552 10.531 29.646 9.971 29.852 9.443C29.854 9.438 29.855 9.43199 29.857 9.42699C29.949 9.19299 30.069 8.968 30.204 8.749C30.223 8.719 30.234 8.686 30.254 8.656C30.412 8.413 30.597 8.18199 30.811 7.96899C31.02 7.75999 31.246 7.577 31.483 7.42C33.147 6.321 35.407 6.50499 36.87 7.96899C37.085 8.18399 37.27 8.41799 37.431 8.66299C37.457 8.70299 37.472 8.748 37.497 8.789C37.624 8.999 37.739 9.21499 37.827 9.43999C37.838 9.46899 37.843 9.5 37.853 9.529C37.942 9.773 38.011 10.021 38.055 10.274C38.056 10.284 38.056 10.294 38.057 10.303C38.102 10.576 38.12 10.852 38.112 11.129L38.122 11.13C38.122 11.13 37.642 14.131 40.311 16.801C42.981 19.471 45.772 19.195 46.215 19.195C46.217 19.195 46.221 19.202 46.225 19.203C47.354 19.178 48.487 19.588 49.346 20.448C51.02 22.121 51.02 24.834 49.346 26.506C47.674 28.179 44.961 28.18 43.289 26.506C42.425 25.647 42.015 24.512 42.04 23.385ZM45.229 42.983C43.281 41.037 43.276 37.879 45.224 35.927C47.168 33.979 50.326 33.977 52.275 35.923C54.225 37.87 54.226 41.03 52.281 42.98C50.335 44.93 47.178 44.932 45.229 42.983Z" fill="white"/>
<path d="M326.027 50.5781H319.355L315.445 37.6992C314.989 36.2409 314.743 35.3112 314.707 34.9102C314.689 35.0742 314.588 35.5026 314.406 36.1953C314.224 36.8698 312.711 41.6641 309.867 50.5781H303.223L298.219 20.9922H304.453L306.723 37.5898C307.069 40.3607 307.242 42.4206 307.242 43.7695L307.789 41.7461L312.082 28.2383H317.359L321.187 40.6797C321.461 41.5911 321.725 42.6211 321.98 43.7695C321.98 42.6393 322.071 41.3359 322.254 39.8594C322.436 38.3828 323.366 32.0938 325.043 20.9922H331.223L326.027 50.5781Z" fill="white"/>
<path d="M292.015 35.7578C292.015 40.6615 290.775 44.4531 288.296 47.1328C285.817 49.7943 282.253 51.125 277.605 51.125C273.12 51.125 269.639 49.7943 267.159 47.1328C264.68 44.4531 263.441 40.6615 263.441 35.7578C263.441 30.8724 264.671 27.099 267.132 24.4375C269.593 21.776 273.139 20.4453 277.769 20.4453C287.266 20.4453 292.015 25.5495 292.015 35.7578ZM283.976 35.7578C283.976 32.2578 283.511 29.7148 282.581 28.1289C281.652 26.5247 280.084 25.7227 277.878 25.7227C275.618 25.7227 273.986 26.5247 272.984 28.1289C271.999 29.7331 271.507 32.276 271.507 35.7578C271.507 39.276 272.008 41.8464 273.011 43.4688C274.032 45.0729 275.536 45.875 277.523 45.875C279.783 45.875 281.424 45.082 282.445 43.4961C283.465 41.8919 283.976 39.3125 283.976 35.7578Z" fill="white"/>
<path d="M245.643 45.3828H255.295V50.5781H227.159V45.3828H237.96V15.1953H230.03V10H245.643V45.3828Z" fill="white"/>
<path d="M199.572 19.9258V30.4258H216.553V36.6602H199.572V50.5781H191.506V13.6914H217.182V19.9258H199.572Z" fill="white"/>
<path d="M161.95 51.125C159.088 51.125 156.855 50.3503 155.251 48.8008C153.647 47.2331 152.845 45.0365 152.845 42.2109C152.845 39.1484 153.793 36.8242 155.689 35.2383C157.603 33.6341 160.456 32.8047 164.247 32.75L170.345 32.6406V31.1367C170.345 29.2591 170.026 27.8372 169.388 26.8711C168.75 25.9049 167.72 25.4219 166.298 25.4219C164.967 25.4219 163.983 25.7591 163.345 26.4336C162.725 27.0898 162.342 28.1471 162.197 29.6055L154.185 29.2227C155.169 23.3711 159.316 20.4453 166.626 20.4453C170.309 20.4453 173.125 21.3477 175.075 23.1523C177.044 24.957 178.029 27.6094 178.029 31.1094V41.8281C178.029 43.487 178.211 44.6354 178.575 45.2734C178.958 45.8932 179.587 46.2031 180.462 46.2031C181.045 46.2031 181.611 46.1484 182.157 46.0391V50.1953C181.702 50.3047 181.292 50.4049 180.927 50.4961C180.562 50.5872 180.198 50.6602 179.833 50.7148C179.469 50.7695 179.077 50.8151 178.657 50.8516C178.256 50.888 177.782 50.9062 177.236 50.9062C175.303 50.9062 173.872 50.4323 172.943 49.4844C172.031 48.5365 171.484 47.1419 171.302 45.3008H171.138C169.99 47.3607 168.677 48.8464 167.2 49.7578C165.742 50.6693 163.992 51.125 161.95 51.125ZM170.345 36.8789L166.681 36.9336C165.04 36.9701 163.846 37.1432 163.099 37.4531C162.37 37.7448 161.814 38.2279 161.431 38.9023C161.048 39.5586 160.857 40.4609 160.857 41.6094C160.857 44.3802 161.95 45.7656 164.138 45.7656C165.906 45.7656 167.383 45.0729 168.568 43.6875C169.753 42.2839 170.345 40.5156 170.345 38.3828V36.8789Z" fill="white"/>
<path d="M124.958 51.125C122.096 51.125 119.863 50.3503 118.258 48.8008C116.654 47.2331 115.852 45.0365 115.852 42.2109C115.852 39.1484 116.8 36.8242 118.696 35.2383C120.61 33.6341 123.463 32.8047 127.255 32.75L133.352 32.6406V31.1367C133.352 29.2591 133.033 27.8372 132.395 26.8711C131.757 25.9049 130.727 25.4219 129.305 25.4219C127.975 25.4219 126.99 25.7591 126.352 26.4336C125.732 27.0898 125.35 28.1471 125.204 29.6055L117.192 29.2227C118.176 23.3711 122.324 20.4453 129.633 20.4453C133.316 20.4453 136.132 21.3477 138.083 23.1523C140.051 24.957 141.036 27.6094 141.036 31.1094V41.8281C141.036 43.487 141.218 44.6354 141.583 45.2734C141.965 45.8932 142.594 46.2031 143.469 46.2031C144.053 46.2031 144.618 46.1484 145.165 46.0391V50.1953C144.709 50.3047 144.299 50.4049 143.934 50.4961C143.57 50.5872 143.205 50.6602 142.84 50.7148C142.476 50.7695 142.084 50.8151 141.665 50.8516C141.264 50.888 140.79 50.9062 140.243 50.9062C138.311 50.9062 136.88 50.4323 135.95 49.4844C135.038 48.5365 134.491 47.1419 134.309 45.3008H134.145C132.997 47.3607 131.684 48.8464 130.208 49.7578C128.749 50.6693 126.999 51.125 124.958 51.125ZM133.352 36.8789L129.688 36.9336C128.047 36.9701 126.853 37.1432 126.106 37.4531C125.377 37.7448 124.821 38.2279 124.438 38.9023C124.055 39.5586 123.864 40.4609 123.864 41.6094C123.864 44.3802 124.958 45.7656 127.145 45.7656C128.913 45.7656 130.39 45.0729 131.575 43.6875C132.76 42.2839 133.352 40.5156 133.352 38.3828V36.8789Z" fill="white"/>
<path d="M107.816 39.8867C107.816 43.3867 106.477 46.1393 103.797 48.1445C101.135 50.1315 97.4258 51.125 92.668 51.125C88.3841 51.125 84.8932 50.2227 82.1953 48.418C79.4974 46.6133 77.7656 43.9883 77 40.543L84.793 39.5312C85.2122 41.2448 86.0872 42.6029 87.418 43.6055C88.7487 44.5898 90.5716 45.082 92.8867 45.082C95.293 45.082 97.0703 44.6992 98.2188 43.9336C99.3854 43.168 99.9688 41.974 99.9688 40.3516C99.9688 39.1484 99.4583 38.1367 98.4375 37.3164C97.4167 36.4779 95.931 35.8216 93.9805 35.3477C90.0612 34.3997 87.2904 33.5794 85.668 32.8867C84.0638 32.1758 82.7786 31.3828 81.8125 30.5078C80.8464 29.6328 80.099 28.612 79.5703 27.4453C79.0599 26.2604 78.8047 24.9388 78.8047 23.4805C78.8047 20.2904 80.0807 17.7656 82.6328 15.9062C85.2031 14.0469 88.5846 13.1172 92.7773 13.1172C96.8607 13.1172 100.051 13.9284 102.348 15.5508C104.645 17.1549 106.13 19.6523 106.805 23.043L98.9844 23.8359C98.1823 20.5 96.0586 18.832 92.6133 18.832C90.681 18.832 89.2044 19.1966 88.1836 19.9258C87.1628 20.6367 86.6523 21.6667 86.6523 23.0156C86.6523 23.9089 86.8984 24.6562 87.3906 25.2578C87.8828 25.8411 88.5482 26.3424 89.3867 26.7617C90.2435 27.1628 91.9753 27.7005 94.582 28.375C98.0091 29.2135 100.643 30.1523 102.484 31.1914C104.326 32.2122 105.674 33.4518 106.531 34.9102C107.388 36.3685 107.816 38.0273 107.816 39.8867Z" fill="white"/>
</svg>
