<?xml version="1.0" encoding="UTF-8"?>
<svg width="120px" height="64px" viewBox="0 0 120 64" version="1.1" xmlns="http://www.w3.org/2000/svg" xmlns:xlink="http://www.w3.org/1999/xlink">
    <title>Group</title>
    <defs>
        <rect id="path-1" x="0" y="0" width="120" height="64"></rect>
        <rect id="path-3" x="0" y="0" width="24" height="24"></rect>
        <rect id="path-5" x="0" y="0" width="24" height="24"></rect>
        <rect id="path-7" x="0" y="0" width="24" height="24"></rect>
        <rect id="path-9" x="0" y="0" width="24" height="24"></rect>
        <rect id="path-11" x="0" y="0" width="24" height="24"></rect>
    </defs>
    <g id="Example" stroke="none" stroke-width="1" fill="none" fill-rule="evenodd">
        <g id="Rating-/-Star-Filled-+-Rating-/-Star-Filled-Copy-3-+-Rating-/-Star-Filled-Copy-4-+-Rating-/-Star-Filled-Copy-+-Rating-/-Star-Filled-Copy-2-Mask">
            <mask id="mask-2" fill="white">
                <use xlink:href="#path-1"></use>
            </mask>
            <g id="Mask"></g>
            <g id="Group-12" mask="url(#mask-2)">
                <g transform="translate(0.000000, 20.000000)">
                    <g id="Rating-/-Star-Filled" transform="translate(48.000000, 0.000000)">
                        <mask id="mask-4" fill="white">
                            <use xlink:href="#path-3"></use>
                        </mask>
                        <g id="Mask"></g>
                        <path d="M12.4158241,3.27908848 C12.2521545,2.90697026 11.7478455,2.90697063 11.5841759,3.27908885 L9.26500541,8.55195208 C9.19830057,8.70361243 9.06124957,8.80803575 8.90309835,8.82770025 L3.40456681,9.51139487 C3.01652265,9.55964496 2.86068293,10.0626334 3.14757389,10.3408652 L7.21277915,14.2833692 C7.32970423,14.3967654 7.38205257,14.5657252 7.35101495,14.7295391 L6.27190649,20.4249486 C6.19575118,20.8268872 6.6037463,21.1377509 6.94472389,20.9375895 L11.7763296,18.101327 C11.9152987,18.0197489 12.0847022,18.0197489 12.2236713,18.101327 L17.0552761,20.9375895 C17.3962537,21.1377509 17.8042484,20.8268872 17.7280926,20.4249486 L16.6489846,14.7295391 C16.6179466,14.5657252 16.6702953,14.3967654 16.7872208,14.2833692 L20.852426,10.3408652 C21.1393167,10.0626334 20.9834765,9.55964496 20.5954326,9.51139487 L15.0969016,8.82770025 C14.9387504,8.80803575 14.8016994,8.70361197 14.7349942,8.55195163 L12.4158241,3.27908848 Z" id="Vector" fill="#000000" fill-rule="nonzero" mask="url(#mask-4)"></path>
                    </g>
                    <g id="Rating-/-Star-Filled-Copy-3" transform="translate(24.000000, 0.000000)">
                        <mask id="mask-6" fill="white">
                            <use xlink:href="#path-5"></use>
                        </mask>
                        <g id="Mask"></g>
                        <path d="M12.4158241,3.27908848 C12.2521545,2.90697026 11.7478455,2.90697063 11.5841759,3.27908885 L9.26500541,8.55195208 C9.19830057,8.70361243 9.06124957,8.80803575 8.90309835,8.82770025 L3.40456681,9.51139487 C3.01652265,9.55964496 2.86068293,10.0626334 3.14757389,10.3408652 L7.21277915,14.2833692 C7.32970423,14.3967654 7.38205257,14.5657252 7.35101495,14.7295391 L6.27190649,20.4249486 C6.19575118,20.8268872 6.6037463,21.1377509 6.94472389,20.9375895 L11.7763296,18.101327 C11.9152987,18.0197489 12.0847022,18.0197489 12.2236713,18.101327 L17.0552761,20.9375895 C17.3962537,21.1377509 17.8042484,20.8268872 17.7280926,20.4249486 L16.6489846,14.7295391 C16.6179466,14.5657252 16.6702953,14.3967654 16.7872208,14.2833692 L20.852426,10.3408652 C21.1393167,10.0626334 20.9834765,9.55964496 20.5954326,9.51139487 L15.0969016,8.82770025 C14.9387504,8.80803575 14.8016994,8.70361197 14.7349942,8.55195163 L12.4158241,3.27908848 Z" id="Vector" fill="#000000" fill-rule="nonzero" mask="url(#mask-6)"></path>
                    </g>
                    <g id="Rating-/-Star-Filled-Copy-4">
                        <mask id="mask-8" fill="white">
                            <use xlink:href="#path-7"></use>
                        </mask>
                        <g id="Mask"></g>
                        <path d="M12.4158241,3.27908848 C12.2521545,2.90697026 11.7478455,2.90697063 11.5841759,3.27908885 L9.26500541,8.55195208 C9.19830057,8.70361243 9.06124957,8.80803575 8.90309835,8.82770025 L3.40456681,9.51139487 C3.01652265,9.55964496 2.86068293,10.0626334 3.14757389,10.3408652 L7.21277915,14.2833692 C7.32970423,14.3967654 7.38205257,14.5657252 7.35101495,14.7295391 L6.27190649,20.4249486 C6.19575118,20.8268872 6.6037463,21.1377509 6.94472389,20.9375895 L11.7763296,18.101327 C11.9152987,18.0197489 12.0847022,18.0197489 12.2236713,18.101327 L17.0552761,20.9375895 C17.3962537,21.1377509 17.8042484,20.8268872 17.7280926,20.4249486 L16.6489846,14.7295391 C16.6179466,14.5657252 16.6702953,14.3967654 16.7872208,14.2833692 L20.852426,10.3408652 C21.1393167,10.0626334 20.9834765,9.55964496 20.5954326,9.51139487 L15.0969016,8.82770025 C14.9387504,8.80803575 14.8016994,8.70361197 14.7349942,8.55195163 L12.4158241,3.27908848 Z" id="Vector" fill="#000000" fill-rule="nonzero" mask="url(#mask-8)"></path>
                    </g>
                    <g id="Rating-/-Star-Filled-Copy" transform="translate(72.000000, 0.000000)">
                        <mask id="mask-10" fill="white">
                            <use xlink:href="#path-9"></use>
                        </mask>
                        <g id="Mask"></g>
                        <path d="M12.4158241,3.27908848 C12.2521545,2.90697026 11.7478455,2.90697063 11.5841759,3.27908885 L9.26500541,8.55195208 C9.19830057,8.70361243 9.06124957,8.80803575 8.90309835,8.82770025 L3.40456681,9.51139487 C3.01652265,9.55964496 2.86068293,10.0626334 3.14757389,10.3408652 L7.21277915,14.2833692 C7.32970423,14.3967654 7.38205257,14.5657252 7.35101495,14.7295391 L6.27190649,20.4249486 C6.19575118,20.8268872 6.6037463,21.1377509 6.94472389,20.9375895 L11.7763296,18.101327 C11.9152987,18.0197489 12.0847022,18.0197489 12.2236713,18.101327 L17.0552761,20.9375895 C17.3962537,21.1377509 17.8042484,20.8268872 17.7280926,20.4249486 L16.6489846,14.7295391 C16.6179466,14.5657252 16.6702953,14.3967654 16.7872208,14.2833692 L20.852426,10.3408652 C21.1393167,10.0626334 20.9834765,9.55964496 20.5954326,9.51139487 L15.0969016,8.82770025 C14.9387504,8.80803575 14.8016994,8.70361197 14.7349942,8.55195163 L12.4158241,3.27908848 Z" id="Vector" fill="#000000" fill-rule="nonzero" mask="url(#mask-10)"></path>
                    </g>
                    <g id="Rating-/-Star-Filled-Copy-2" transform="translate(96.000000, 0.000000)">
                        <mask id="mask-12" fill="white">
                            <use xlink:href="#path-11"></use>
                        </mask>
                        <g id="Mask"></g>
                        <path d="M12.4158241,3.27908848 C12.2521545,2.90697026 11.7478455,2.90697063 11.5841759,3.27908885 L9.26500541,8.55195208 C9.19830057,8.70361243 9.06124957,8.80803575 8.90309835,8.82770025 L3.40456681,9.51139487 C3.01652265,9.55964496 2.86068293,10.0626334 3.14757389,10.3408652 L7.21277915,14.2833692 C7.32970423,14.3967654 7.38205257,14.5657252 7.35101495,14.7295391 L6.27190649,20.4249486 C6.19575118,20.8268872 6.6037463,21.1377509 6.94472389,20.9375895 L11.7763296,18.101327 C11.9152987,18.0197489 12.0847022,18.0197489 12.2236713,18.101327 L17.0552761,20.9375895 C17.3962537,21.1377509 17.8042484,20.8268872 17.7280926,20.4249486 L16.6489846,14.7295391 C16.6179466,14.5657252 16.6702953,14.3967654 16.7872208,14.2833692 L20.852426,10.3408652 C21.1393167,10.0626334 20.9834765,9.55964496 20.5954326,9.51139487 L15.0969016,8.82770025 C14.9387504,8.80803575 14.8016994,8.70361197 14.7349942,8.55195163 L12.4158241,3.27908848 Z" id="Vector" fill="#000000" fill-rule="nonzero" mask="url(#mask-12)"></path>
                    </g>
                </g>
            </g>
        </g>
    </g>
</svg>