<?xml version="1.0" encoding="UTF-8"?><svg id="b" xmlns="http://www.w3.org/2000/svg" viewBox="0 0 64 64"><g id="c"><path d="m32,7.56v-2.76l6.25,5.52m-15.74,27.37c9.62-.64,9.49-9.5,9.49-9.5V7.24M15.7,31.43c-3.45,0-6.25,2.8-6.25,6.25s2.8,6.25,6.25,6.25,6.25-2.8,6.25-6.25-2.8-6.25-6.25-6.25Zm16.3,5.35v9.42m0,.49c-3.45,0-6.25,2.8-6.25,6.25s2.8,6.25,6.25,6.25,6.25-2.8,6.25-6.25-2.8-6.25-6.25-6.25Zm2.1-12.49c1.37,1.73,3.64,3.23,7.38,3.48m.56,0c0,3.45,2.8,6.25,6.25,6.25,3.45,0,6.25-2.8,6.25-6.25,0-3.45-2.8-6.25-6.25-6.25-3.45,0-6.25,2.8-6.25,6.25Zm-10.05-30.45v-2.44s-6.25,5.52-6.25,5.52" style="fill:none; stroke:#000; stroke-linecap:round; stroke-linejoin:round;"/><rect width="64" height="64" style="fill:none; stroke-width:0px;"/></g></svg>