<?xml version="1.0" encoding="UTF-8"?><svg id="b" xmlns="http://www.w3.org/2000/svg" viewBox="0 0 64 64"><g id="c"><path d="m35.75,33.04c1.2.42,2.5.47,3.8.1,2.97-.78,5.05-3.49,4.95-6.61-.1-3.07-2.29-5.68-5.31-6.3-.52-3.49-3.59-6.15-7.19-6.15s-6.67,2.66-7.19,6.2c-3.02.62-5.21,3.23-5.31,6.3-.1,3.07,1.98,5.83,4.95,6.61,1.3.36,2.6.26,3.85-.16m-3.49-12.76s2.86-.47,4.58,1.3m9.79-1.3s-1.51-.1-2.29.47m-4.17,16.61s.05-.83.26-1.93c.21-1.09.78-1.98.78-1.98,0,0,2.19-.16,3.54-1.2,1.41-1.04,2.29-3.44,2.29-3.44,0,0-1.93-.31-3.65.31-1.04.36-1.93.94-1.93.94,0,0,.05-1.61-.42-2.71-.47-1.15-1.61-3.07-1.61-3.07,0,0-1.09,1.93-1.61,3.07-.47,1.09-.42,2.71-.42,2.71,0,0-.89-.57-1.93-.94-1.72-.62-3.65-.31-3.65-.31,0,0,.94,2.4,2.29,3.44,1.41,1.04,3.54,1.2,3.54,1.2,0,0,.57.89.78,1.98s.26,1.93.26,1.93h1.46Zm20.17-10.99l-1.56-1.99c-1.08-1.39-1.56-3.91-1.06-5.6l.71-2.42c.5-1.69-.51-3.38-2.23-3.74l-2.46-.52c-1.72-.36-3.71-1.99-4.42-3.6l-1.01-2.31c-.7-1.62-2.55-2.26-4.11-1.43l-2.22,1.18c-1.56.83-4.12.86-5.7.08l-2.26-1.13c-1.58-.78-3.41-.09-4.07,1.55l-.95,2.34c-.65,1.64-2.6,3.31-4.31,3.73l-2.45.59c-1.72.41-2.67,2.13-2.12,3.8l.78,2.4c.55,1.68.13,4.21-.91,5.63l-1.5,2.03c-1.05,1.42-.68,3.34.82,4.28l2.14,1.33c1.5.94,2.81,3.14,2.92,4.9l.15,2.52c.11,1.76,1.62,3,3.37,2.75l2.5-.35c1.75-.24,4.17.6,5.39,1.88l1.73,1.83c1.22,1.28,3.17,1.25,4.36-.06l1.68-1.88c1.18-1.31,3.58-2.22,5.33-2.03l2.5.28c1.75.2,3.24-1.08,3.3-2.85l.09-2.52c.06-1.76,1.31-4,2.78-4.98l2.1-1.39c1.47-.97,1.79-2.91.7-4.3Zm-20.9,27.86l-10.11,5.35v-16.77m20.21,0v16.77s-10.11-5.35-10.11-5.35" style="fill:none; stroke:#000; stroke-linecap:round; stroke-linejoin:round;"/><rect width="64" height="64" style="fill:none; stroke-width:0px;"/></g></svg>