<svg enable-background="new 0 0 64 64" viewBox="0 0 64 64" xmlns="http://www.w3.org/2000/svg"><path d="m43.7 54 14.7-24.1s-2.4-1.2-3.8-1-2.4 1.3-2.4 1.3c.5-.6-5.8 6.9-5.8 6.9m-5.9 8.4 4.7-5.4c.4-.4.6-1 .6-1.6 0-1.3-1-2.3-2.2-2.3-.6 0-1.1.2-1.5.7l-8 8.8s-2 2-2 4.5v3.8m-14.1-17s-6.3-7.5-5.8-6.9c0 0-1.1-1-2.4-1.3s-3.8 1-3.8 1l14.7 24.2m11.5 0v-3.8c0-2.6-2-4.5-2-4.5l-8-8.8c-.4-.4-.9-.7-1.5-.7-1.2 0-2.2 1-2.2 2.3 0 .6.2 1.2.6 1.6l4.7 5.4m19.6-33.6c-4.6-4.6-11 .3-11.7.9-.8-.6-7.1-5.4-11.7-.9-9.4 9.3 11.7 23.2 11.7 23.2s21.1-13.9 11.7-23.2z" fill="none" stroke="#000" stroke-dasharray="0" stroke-linecap="round" stroke-linejoin="round"/></svg>