<?xml version="1.0" encoding="UTF-8"?><svg id="b" xmlns="http://www.w3.org/2000/svg" viewBox="0 0 64 64"><g id="c"><path d="m41.29,24.95h-18.49c-1,0-1.81-.81-1.81-1.81v-.65c0-1,.81-1.81,1.81-1.81h18.49c1,0,1.81.81,1.81,1.81v.65c0,1-.81,1.81-1.81,1.81Zm1.81,17.79v-.65c0-1-.81-1.81-1.81-1.81h-18.49c-1,0-1.81.81-1.81,1.81v.65c0,1,.81,1.81,1.81,1.81h18.49c1,0,1.81-.81,1.81-1.81Zm-19.78-17.79v15.33m17.45-15.33v15.33m-17.81-11.5h17.93m-17.93,3.83h17.93m-17.93,3.83h17.93s5.21.15,4.68-2.77m4.45-13.1l4.72,1.72,1.64-4.75M9.32,41.8c5.17,11.95,18.88,17.92,31.24,13.35,10.8-3.99,17.14-14.74,16-25.69m-1.81-7.16c-5.12-12.04-18.89-18.04-31.29-13.45-10.82,4-17.16,14.78-15.99,25.75m6.59,8.91l-4.72-1.72-1.64,4.75" style="fill:none; stroke:#000;"/><rect width="64" height="64" style="fill:none; stroke-width:0px;"/></g></svg>