<svg fill="none" height="24" viewBox="0 0 257 24" width="257" xmlns="http://www.w3.org/2000/svg"><g fill="#fff"><path d="m12.9603 21.4905v2.11h-12.9603v-22.17547l2.09505-1.015021.85002-.410009h1.27002v21.4905zm17.8504-4.3801 1.315.53c-.8 2.7551-3.2251 4.9001-5.8951 5.8551-3.0901 1.12-6.7552.26-9.1302-1.88-1.6151-1.4551-2.6501-3.5351-2.6351-5.7351-.045-3.6851 1.8601-7.19521 5.3001-8.61024 2.0201-.88002 4.8951-.94502 6.9752-.12 2.8051 1.03002 4.9551 3.62504 4.8751 6.64514h-13.4053c-.03 3.6401 2.2501 7.4302 6.1751 7.4002 2.5651-.015 5.4802-1.4701 6.3752-3.9301 0 0-.42 1.075.05-.155zm-8.4652-9.02022c-2.1801-.01-3.9051 1.97002-4.1051 4.07012l8.5902.015c-.035-2.34508-2.1951-4.13512-4.4851-4.08512zm44.781 7.50512c-2.06-1.635-4.9701-2.16-7.2052-3.45-3.03-1.8101-1.25-4.25512 1.7351-4.18012 2.12.01 3.7301 1.24503 4.9201 3.09002l1.565-1.27998c-1.835-2.22505-3.5901-3.27007-6.4501-3.20507-2.8801-.065-6.2702 1.55003-6.2802 4.73015.055 4.325 5.2702 4.9251 8.1602 6.7701 1.45.865 2.0751 2.6251.555 3.7651-1.395 1.01-3.495.895-4.9451.015-.995-.61-1.745-1.475-2.525-2.4701l-1.6951 1.4001c1.3551 1.685 3.1451 2.805 5.2101 3.095 3.0351.375 6.7802-.1 8.2102-2.985.875-1.9201.44-4.0051-1.255-5.2902m21.5505 8.0402-4.3351-.015c-.855-.395-1.6351-1.15-1.7401-2.11-1.24.915-2.405 1.845-3.965 2.23-2.3201.635-5.4352.16-6.4502-2.32-.805-1.8501-.135-4.0001 1.43-5.2301 2.4801-1.9951 5.9152-2.7151 8.9702-3.4501-.005-1.35.075-2.94008-.69-3.9601-.755-.96503-2.43-.99003-3.5101-.55502-1.275.52501-2.09 1.78002-2.25 3.13012h-3.5701c.405-3.49013 4.4501-4.79015 7.5502-4.78515 2.43.03 5.0901.375 6.0351 2.66006.21.55501.32 1.17499.32 1.84499v10.1553c-.02.97.75 1.725 1.5801 2.115l.625.285zm-6.0902-9.5302c-2.17.685-5.3151 1.7651-6.5751 3.7351-.8 1.33.125 3.0701 1.44 3.6351 1.8651.73 3.6401-.5 5.1301-1.5101v-5.8601m-31.4007 3.0051 1.3151.53c-.8 2.7551-3.2251 4.9001-5.8952 5.8551-3.09 1.12-6.7551.26-9.1302-1.88-1.615-1.455-2.65-3.5351-2.635-5.7351-.045-3.6851 1.86-7.19521 5.3001-8.61024 2.02-.88002 4.8951-.94502 6.9751-.12 2.8051 1.03002 4.9552 3.62504 4.8752 6.64514h-13.4053c-.03 3.6401 2.25 7.4302 6.1751 7.4002 2.5651-.015 5.4801-1.4701 6.3751-3.9301 0 0-.42 1.075.05-.155zm-8.4651-9.02022c-2.1801-.01-3.9051 1.97002-4.1051 4.07012l8.5902.015c-.035-2.34508-2.1951-4.13512-4.4851-4.08512zm43.8409-3.85509c1.1651 0 2.1151-.95002 2.1151-2.11504 0-1.165029-.95-2.1150498-2.1151-2.1150498-1.165 0-2.115.9500208-2.115 2.1150498 0 1.16502.95 2.11504 2.115 2.11504zm0-3.840081c.9501 0 1.7251.775021 1.7251 1.725041s-.775 1.72504-1.7251 1.72504c-.95 0-1.725-.77502-1.725-1.72504s.775-1.725041 1.725-1.725041zm.44 2.775061-.51-.78002-.355-.01v.79002h-.44v-2.11005c.215.015 1.085-.035 1.275.04.605.18001.585 1.05003-.015 1.23003l.5551.83002h-.5101zm-.86-1.17503h.54c.16 0 .29-.105.285-.27 0-.18001-.125-.27501-.295-.27501h-.53z"/><path d="m252.426 7.29517c-2.35 0-3.62 1.18503-4.44 2.09005-.365.41001-.475.58001-.645.58001s-.215-.195-.39-.54001c-.17-.32501-.97-2.07004-3.36-2.07004s-3.725 1.38003-4.48 2.13504c-.17.17001-.475.28001-.475-.085v-1.33503c0-.54001-.15-.54001-1.015-.54001s-1.12 0-1.12.54001v15.34031c0 .41.26.41 1.1.41.67 0 1.075.02 1.075-.41v-7.6701c0-3.7701 1.79-6.20518 4.05-6.22518 2.305 0 2.735 2.07008 2.735 3.66508v10.3002c0 .45.41.325 1.035.325s1.1.13 1.1-.325v-7.7551c0-3.7701 1.7-6.20518 4.35-6.22518 1.98 0 2.54 1.61508 2.54 3.21008v10.5552c0 .54.15.515 1.035.515s1.14-.045 1.14-.515v-11.1402c-.02-3.01509-1.81-4.85013-4.245-4.82513m-22.906-5.99013c0-.365008-.045-.580013-.43-.580013l-3.64.065002c-.26 0-.235.215001-.235.990021 0 .56001-.02.92502.235.92502 1.42 0 1.855.62502 1.855 1.55004v18.98039c0 .495-.11.515 1.055.515s1.14.045 1.14-.515v-21.93546h.02zm-71.746 7.32516c1.485 0 3.555 1.20503 3.555 3.1651 0 1.38-.15 1.55-.495 1.55-.13 0-6.29.02-6.875.02-.41 0-.43-.215-.43-.605-.02-1.635 1.51-4.1351 4.245-4.1351m-3.945 6.7002 8.035-.02c.645 0 1.14-.1951 1.335-.7551.215-.775.39-1.42.28-2.91-.26-3.96512-3.575-5.10514-5.645-5.10514-4.525 0-7.09 3.79004-7.09 8.90024 0 2.865.56 4.3101 1.745 6.0751 1.205 1.745 3.425 2.415 5.255 2.415s4.87-1.1 5.515-1.855c.13-.15.13-.605.045-1.075-.085-.41-.235-.97-.54-.86-.495.195-2.005 1.485-4.72 1.485-4.675.02-4.74-4.4801-4.785-5.3651-.02-.905.13-.925.56-.925m40.701 5.5801c-.495.195-.95.54-2.26.54-2.39 0-2.93-1.8751-2.93-3.4451v-8.57518c.02-.34501.13-.43001.58-.43001l4.59-.02c.17 0 .15-.32501.15-1.10002 0-.77502.045-1.12003-.26-1.12003l-4.48.02c-.41 0-.58-.13-.58-.71001v-4.04009c0-.62502-.065-.64502-1.1-.32501-.76.23-1.14.49501-1.14.79502v3.55508c0 .43001-.085.71001-.605.71001h-1.726c-.41 0-.28.47501-.28 1.10003 0 .62501 0 1.12002.28 1.12002l1.791-.02c.325.02.515.045.515.39001v7.22018c.02 4.1151.58 5.0201 1.485 5.9701.925.95 2.2 1.23 3.105 1.205.925 0 2.22-.365 3.08-.755.43-.195.475-.345.325-1.27-.15-.885-.26-.925-.54-.82m-18.701-6.6602c-1.465-.67-3.51-1.1-3.51-3.105 0-1.70008 1.615-2.5201 2.715-2.5201.71 0 1.66.21501 2.63.60502.97.41001.95.065 1.315-.58002.28-.45001.345-.88502.235-.99002-.605-.51501-2.26-1.18502-4.16-1.16502-3.445.02-5.255 2.20005-5.235 4.67514 0 2.37 2.025 3.88 3.9 4.7601 1.94.885 3.9 1.55 3.92 3.19 0 1.0751-.95 2.6701-2.93 2.6701-1.66 0-3.36-.99-3.945-1.27-.325-.15-.45.195-.71.71-.325.67-.54 1.165-.3 1.315 1.185.735 3.23 1.445 4.91 1.445 3.105-.02 5.495-1.895 5.495-4.9101 0-3.21-2.885-4.1351-4.33-4.8251m38.976-5.6251c1.485 0 3.555 1.20503 3.555 3.1651 0 1.38-.15 1.55-.495 1.55-.13 0-6.29.02-6.875.02-.41 0-.43-.215-.43-.605-.02-1.635 1.51-4.1351 4.245-4.1351m-3.945 6.7002 8.035-.02c.645 0 1.14-.1951 1.335-.7551.215-.775.39-1.42.28-2.91-.235-3.98512-3.555-5.13014-5.625-5.13014-4.525 0-7.09 3.79004-7.09 8.90024 0 2.865.56 4.3101 1.745 6.0751 1.205 1.745 3.425 2.415 5.255 2.415s4.87-1.1 5.515-1.855c.13-.15.13-.605.045-1.075-.085-.41-.235-.97-.54-.86-.495.195-2.005 1.485-4.72 1.485-4.675.02-4.74-4.4801-4.785-5.3651s.11-.905.54-.905m-65.221-8.29523c-.905 0-1.14-.065-1.295.28-.045.13001-2.325 11.80523-2.325 11.80523-.085.345-.15.495-.345.495s-.281-.085-.346-.39l-3.275-11.76522c-.085-.34501-.235-.47501-1.035-.47501s-.97.085-1.075.47501l-3.145 11.76522c-.085.3-.17.39-.365.39-.17 0-.26-.345-.345-.69l-2.455-11.65523c-.13-.43001-.365-.325-1.185-.325s-1.055.045-1.055.49501c0 .215 3.47 14.99532 3.62 15.62032.17.67.41.885 1.335.885 1.1 0 1.23-.475 1.4-.885l2.975-10.5802c.11-.3.11-.45.325-.45s.235.17.325.45l2.975 10.5802c.17.41.3.885 1.401.885.925 0 1.165-.215 1.335-.885.15-.625 3.535-15.51532 3.535-15.68532-.045-.41001-.365-.34501-.97-.34501"/><path d="m114.628 14.2953h-5.465v-5.46512h-2.25v5.46512h-5.465v2.2501h5.465v5.4651h2.25v-5.4651h5.465z"/></g></svg>