<?xml version="1.0" encoding="UTF-8"?><svg id="b" xmlns="http://www.w3.org/2000/svg" viewBox="0 0 64 64"><g id="c"><path d="m59.48,38.82c0,5.49-4.43,9.94-9.89,9.94H16.59c-6.67,0-12.07-5.41-12.07-12.07s5.41-12.07,12.07-12.07c1.02,0,1.99.16,2.94.4,1.07-5.57,5.96-9.78,11.84-9.78,4.53,0,8.43,2.52,10.5,6.22.75-.24,1.53-.4,2.36-.4,4.32,0,7.82,3.5,7.82,7.82,0,.11-.03.22-.03.33,4.29,1.09,7.48,4.96,7.48,9.61Zm-27.24-6.62c-4.85,1.85-8.09,6.2-9.17,11.2m3.78-3.41c8.05,3.81,9.28-3.45,10.32-6.01,1.04-2.56,3.75-3.65,3.75-3.65-5.49-3.38-10.35-1.77-10.35-1.77-8.59,2.68-5.71,9.56-5.71,9.56" style="fill:none; stroke:#000; stroke-miterlimit:10;"/><rect width="64" height="64" style="fill:none; stroke-width:0px;"/></g></svg>