<?xml version="1.0" encoding="UTF-8"?>
<svg width="241px" height="48px" viewBox="0 0 241 48" version="1.1" xmlns="http://www.w3.org/2000/svg" xmlns:xlink="http://www.w3.org/1999/xlink">
    <!-- Generator: Sketch 59.1 (86144) - https://sketch.com -->
    <title>logo/mattress_advisor</title>
    <desc>Created with Sketch.</desc>
    <g id="Homepage" stroke="none" stroke-width="1" fill="none" fill-rule="evenodd">
        <g id="Homepage-Mattress-Quotes" transform="translate(-1770.000000, -231.000000)">
            <g id="logo/mattress_advisor" transform="translate(1771.000000, 232.000000)">
                <g id="Mattress-Advisor-_-Trusted-Reviews,-Buying-Guides,-Sleep-Education-0">
                    <path d="M68.8352941,18.0422222 L68.8352941,25.6105983 C68.8352941,25.822906 68.6392157,25.9880342 68.3647059,25.9880342 L67.1529412,25.9880342 C66.8941176,25.9880342 66.6823529,25.822906 66.6823529,25.6105983 L66.6823529,14.9165812 C66.6823529,14.7042735 66.8941176,14.5430769 67.1529412,14.5430769 L68.6039216,14.5430769 C68.7529412,14.5430769 68.9490196,14.6413675 68.9960784,14.688547 L72.1294118,19.0526496 C72.7803922,18.1562393 73.4156863,17.2873504 74.0509804,16.3909402 C74.4627451,15.8169231 74.8705882,15.2625641 75.3058824,14.688547 C75.3568627,14.6413675 75.5372549,14.5430769 75.6509804,14.5430769 L77.1372549,14.5430769 C77.4117647,14.5430769 77.5764706,14.7042735 77.5764706,14.9165812 L77.5764706,25.6105983 C77.5764706,25.822906 77.4117647,25.9880342 77.1372549,25.9880342 L75.8941176,25.9880342 C75.6509804,25.9880342 75.454902,25.822906 75.454902,25.6105983 L75.454902,18.0461538 L72.6509804,21.8716239 C72.5434892,21.9579343 72.4119746,22.0087522 72.2745098,22.017094 L72,22.017094 C71.8509804,22.017094 71.6862745,21.9188034 71.6392157,21.8716239 L68.8352941,18.0461538" id="Path" fill="#FFFFFF" fill-rule="nonzero"></path>
                    <path d="M84.2588235,21.2779487 L87.3764706,21.2779487 L85.9058824,17.0121368 L84.2588235,21.2779487 Z M88.0627451,23.1926496 L83.5254902,23.1926496 L82.6117647,25.6302564 C82.4980392,25.8071795 82.3019608,25.9880342 82.1058824,25.9880342 L80.9176471,25.9880342 C80.5411765,25.9880342 80.345098,25.7442735 80.4588235,25.4651282 L84.6196078,14.9008547 C84.7333333,14.72 84.945098,14.5430769 85.1254902,14.5430769 L86.7215686,14.5430769 C86.8705882,14.5430769 87.1294118,14.6728205 87.1803922,14.7868376 L91.0941176,25.4808547 C91.2117647,25.7560684 90.9647059,25.9880342 90.6392157,25.9880342 L89.4117647,25.9880342 C89.2627451,25.9880342 89.0039216,25.8582906 88.9529412,25.7442735 L88.054902,23.1887179" id="Shape" fill="#FFFFFF" fill-rule="nonzero"></path>
                    <path d="M93.4745098,16.3909402 C93.2117647,16.3909402 93,16.225812 93,16.0135043 L93,14.9165812 C93,14.7042735 93.2117647,14.5430769 93.4705882,14.5430769 L101.611765,14.5430769 C101.886275,14.5430769 102.05098,14.7042735 102.05098,14.9165812 L102.05098,16.0135043 C102.05098,16.225812 101.890196,16.3909402 101.611765,16.3909402 L98.5764706,16.3909402 L98.5764706,25.6105983 C98.5764706,25.822906 98.3803922,25.9880342 98.1372549,25.9880342 L96.9294118,25.9880342 C96.6705882,25.9880342 96.4588235,25.822906 96.4588235,25.6105983 L96.4588235,16.3948718 L93.4745098,16.3948718" id="Path" fill="#FFFFFF" fill-rule="nonzero"></path>
                    <path d="M104.415686,16.3909402 C104.152941,16.3909402 103.945098,16.225812 103.945098,16.0135043 L103.945098,14.9165812 C103.945098,14.7042735 104.152941,14.5430769 104.415686,14.5430769 L112.54902,14.5430769 C112.823529,14.5430769 112.988235,14.7042735 112.988235,14.9165812 L112.988235,16.0135043 C112.988235,16.225812 112.827451,16.3909402 112.54902,16.3909402 L109.517647,16.3909402 L109.517647,25.6105983 C109.517647,25.822906 109.321569,25.9880342 109.07451,25.9880342 L107.866667,25.9880342 C107.607843,25.9880342 107.396078,25.822906 107.396078,25.6105983 L107.396078,16.3948718 L104.411765,16.3948718" id="Path" fill="#FFFFFF" fill-rule="nonzero"></path>
                    <path d="M119.176471,20.0670085 C120.85098,20.0670085 121.505882,19.3003419 121.505882,18.2388034 C121.505882,17.6176068 121.262745,16.4538462 119.141176,16.4538462 L118.031373,16.4538462 L118.031373,20.0709402 L119.176471,20.0670085 Z M118.031373,25.6105983 C118.031373,25.822906 117.819608,25.9880342 117.560784,25.9880342 L116.337255,25.9880342 C116.058824,25.9880342 115.862745,25.822906 115.862745,25.6105983 L115.862745,14.9165812 C115.862745,14.7042735 116.058824,14.5430769 116.333333,14.5430769 L119.156863,14.5430769 C121.701961,14.5430769 123.592157,15.6203419 123.592157,18.2191453 C123.592157,19.8704274 122.858824,21.0184615 121.439216,21.557094 L123.67451,25.4336752 C123.823529,25.7088889 123.658824,25.9880342 123.282353,25.9880342 L121.831373,25.9880342 C121.65098,25.9880342 121.505882,25.8897436 121.392157,25.7128205 L119.286275,21.9502564 L118.031373,21.9502564 L118.031373,25.6105983" id="Shape" fill="#FFFFFF" fill-rule="nonzero"></path>
                    <path d="M134.435294,24.0615385 C134.713725,24.0615385 134.909804,24.1873504 134.909804,24.4350427 L134.909804,25.6145299 C134.909804,25.822906 134.713725,25.9880342 134.439216,25.9880342 L127.470588,25.9880342 C127.196078,25.9880342 127,25.822906 127,25.6105983 L127,14.9165812 C127,14.7042735 127.196078,14.5430769 127.470588,14.5430769 L134.305882,14.5430769 C134.568627,14.5430769 134.776471,14.7042735 134.776471,14.9165812 L134.776471,16.1275214 C134.776471,16.3712821 134.568627,16.5049573 134.305882,16.5049573 L129.152941,16.5049573 L129.152941,18.7774359 L133.996078,18.7774359 C134.258824,18.7774359 134.466667,18.9386325 134.466667,19.1509402 L134.466667,20.2635897 C134.466667,20.5112821 134.258824,20.6567521 133.996078,20.6567521 L129.152941,20.6567521 L129.152941,24.0576068 L134.435294,24.0576068" id="Path" fill="#FFFFFF" fill-rule="nonzero"></path>
                    <path d="M141.039216,26.1531624 C139.933333,26.1531624 138.937255,25.9054701 138.235294,25.3825641 C138.090196,25.2646154 138.023529,25.1388034 138.090196,24.8911111 L138.364706,23.8964103 C138.443137,23.6841026 138.741176,23.5347009 139,23.6487179 C139.572549,23.9632479 140.27451,24.2384615 141.172549,24.2384615 C142.231373,24.2384615 143.047059,23.6998291 143.047059,22.7837607 C143.031373,21.9817094 142.262745,21.4430769 141.086275,20.9358974 C139.427451,20.2793162 138.105882,19.2020513 138.054902,17.6333333 C138.007843,15.7500855 139.541176,14.3779487 141.870588,14.3779487 C143.12549,14.3779487 144.043137,14.7868376 144.368627,14.9991453 C144.564706,15.1288889 144.678431,15.242906 144.611765,15.4905983 L144.156863,16.5678632 C143.992157,16.862735 143.780392,16.9295726 143.521569,16.7801709 C142.854902,16.3870085 142.278431,16.2415385 141.772549,16.2926496 C140.960784,16.3398291 140.176471,16.8312821 140.223529,17.5664957 C140.243137,18.1562393 140.666667,18.6476923 141.709804,19.0880342 C143.278431,19.7406838 145.152941,20.6724786 145.2,22.7680342 C145.247059,24.7299145 143.847059,26.1492308 141.043137,26.1492308" id="Path" fill="#FFFFFF" fill-rule="nonzero"></path>
                    <path d="M151.117647,26.1531624 C150.007843,26.1531624 149.015686,25.9054701 148.313725,25.3825641 C148.164706,25.2646154 148.101961,25.1388034 148.164706,24.8911111 L148.439216,23.8964103 C148.52549,23.6841026 148.819608,23.5347009 149.078431,23.6487179 C149.65098,23.9632479 150.352941,24.2384615 151.247059,24.2384615 C152.305882,24.2384615 153.12549,23.6998291 153.12549,22.7837607 C153.109804,21.9817094 152.341176,21.4430769 151.164706,20.9358974 C149.501961,20.2793162 148.184314,19.2020513 148.133333,17.6333333 C148.082353,15.7500855 149.615686,14.3779487 151.94902,14.3779487 C153.203922,14.3779487 154.121569,14.7868376 154.443137,14.9991453 C154.639216,15.1288889 154.756863,15.242906 154.690196,15.4905983 L154.231373,16.5678632 C154.070588,16.862735 153.858824,16.9295726 153.596078,16.7801709 C152.929412,16.3870085 152.356863,16.2415385 151.85098,16.2926496 C151.035294,16.3398291 150.254902,16.8312821 150.301961,17.5664957 C150.317647,18.1562393 150.741176,18.6476923 151.788235,19.0880342 C153.352941,19.7406838 155.227451,20.6724786 155.278431,22.7680342 C155.32549,24.7299145 153.92549,26.1492308 151.117647,26.1492308" id="Path" fill="#FFFFFF" fill-rule="nonzero"></path>
                    <path d="M167.686275,21.1482051 L171.647059,21.1482051 L169.741176,15.702906 L167.686275,21.1482051 Z M165.858824,25.9880342 L164.407843,25.9880342 L168.890196,14.5430769 L170.603922,14.5430769 L174.8,25.9880342 L173.360784,25.9880342 L172.090196,22.4102564 L167.211765,22.4102564 L165.858824,25.9880342" id="Shape" fill="#FFFFFF" fill-rule="nonzero"></path>
                    <path d="M179.376471,24.6945299 L181.415686,24.6945299 C183.992157,24.6473504 185.070588,22.571453 185.070588,20.2517949 C185.070588,18.4511111 184.352941,15.8326496 181.415686,15.8326496 L179.376471,15.8326496 L179.376471,24.6945299 Z M181.447059,25.9880342 L178.07451,25.9880342 L178.07451,14.5430769 L181.415686,14.5430769 C184.529412,14.5430769 186.388235,16.8470085 186.388235,20.2478632 C186.388235,23.2241026 185.070588,25.8897436 181.447059,25.9880342" id="Shape" fill="#FFFFFF" fill-rule="nonzero"></path>
                    <polyline id="Path" fill="#FFFFFF" fill-rule="nonzero" points="193.921569 24.6630769 197.792157 14.5470085 199.180392 14.5470085 194.803922 25.9880342 193.07451 25.9880342 188.85098 14.5430769 190.301961 14.5430769 193.92549 24.6630769"></polyline>
                    <polyline id="Path" fill="#FFFFFF" fill-rule="nonzero" points="202.368627 14.5234188 203.690196 14.5234188 203.690196 25.9880342 202.368627 25.9880342 202.368627 14.5234188"></polyline>
                    <path d="M210.490196,26.1688889 C209.380392,26.1688889 208.419608,25.9408547 207.768627,25.4494017 L208.094118,24.254188 C208.86787,24.6810474 209.73645,24.9055102 210.619608,24.9068376 C212.023529,24.9068376 213.14902,24.1716239 213.129412,22.9449573 C213.117647,21.8362393 212.25098,21.2464957 210.701961,20.5899145 C208.937255,19.9883761 207.815686,19.0723077 207.784314,17.4682051 C207.733333,15.6871795 209.184314,14.3622222 211.352941,14.3622222 C212.694118,14.3622222 213.603922,14.8851282 213.85098,15.0148718 L213.360784,16.1589744 C212.737483,15.7410865 211.98976,15.5509 211.243137,15.6203419 C210.113725,15.671453 209.054902,16.3398291 209.086275,17.3895726 C209.101961,18.1719658 209.705882,18.8442735 210.980392,19.3671795 C212.560784,20.0355556 214.372549,20.9201709 214.419608,22.9292308 C214.454902,24.8124786 213.133333,26.1688889 210.490196,26.1688889" id="Path" fill="#FFFFFF" fill-rule="nonzero"></path>
                    <path d="M227.662745,20.2635897 C227.662745,17.7945299 225.690196,15.671453 223.227451,15.671453 C220.615686,15.671453 218.643137,17.7945299 218.643137,20.2635897 C218.643137,22.7326496 220.615686,24.8596581 223.227451,24.8596581 C225.690196,24.8596581 227.662745,22.7365812 227.662745,20.2635897 L227.662745,20.2635897 Z M228.968627,20.2635897 C228.968627,23.4364103 226.392157,26.1688941 223.227451,26.1688941 C221.664636,26.1709794 220.165229,25.5494871 219.060151,24.4415752 C217.955073,23.3336633 217.33517,21.8304124 217.33725,20.2635897 C217.336212,18.697448 217.956575,17.1952084 219.06154,16.0881475 C220.166505,14.9810867 221.665316,14.3601337 223.227451,14.362217 C226.392157,14.362217 228.968627,17.0907692 228.968627,20.2635897" id="Shape" fill="#FFFFFF" fill-rule="nonzero"></path>
                    <path d="M235.423529,20.4601709 C237.592157,20.4601709 238.407843,19.445812 238.407843,18.0894017 C238.407843,17.3030769 238.133333,15.7854701 235.388235,15.7854701 L233.694118,15.7854701 L233.694118,20.4641026 L235.423529,20.4601709 Z M233.694118,21.6711111 L233.694118,25.9880342 L232.372549,25.9880342 L232.372549,14.5430769 L235.407843,14.5430769 C237.839216,14.5430769 239.647059,15.5888889 239.647059,18.0736752 C239.647059,19.842906 238.733333,20.9830769 237.184314,21.4430769 L239.776471,25.9880342 L238.262745,25.9880342 L235.847059,21.6711111 L233.694118,21.6711111" id="Shape" fill="#FFFFFF" fill-rule="nonzero"></path>
                    <path d="M1.48235294,33.5957265 L0.333333333,32.9273504 C0.237846235,32.8739604 0.178043369,32.7735337 0.176470588,32.6639316 L0.176470588,17.8023932 C0.176470588,17.5685364 0.301754975,17.3526876 0.5042305,17.2365746 C0.706706025,17.1204616 0.955672567,17.1218336 1.15686275,17.2401709 L21.2156863,28.8659829 C22.1254722,29.3935329 23.2470768,29.3935329 24.1568627,28.8659829 L53.4862745,11.8813675 C53.9176471,11.6336752 54.4588235,11.9482051 54.4588235,12.4475214 L54.4588235,29.2119658 C54.4588235,29.3259829 54.4,29.4282051 54.3019608,29.4832479 L53.1843137,30.0847863 C53.1039749,30.1294388 53.0060483,30.1280546 52.926997,30.0811492 C52.8479457,30.0342438 52.7996147,29.9488454 52.8,29.8567521 L52.8117647,14.4447863 C52.8117647,14.3347009 52.6901961,14.26 52.5882353,14.3189744 L24.1568627,30.7767521 C23.2470768,31.3043022 22.1254722,31.3043022 21.2156863,30.7767521 L2.05098039,19.6463248 C2.00508445,19.6215712 1.9496246,19.6226542 1.9047249,19.6491808 C1.8598252,19.6757074 1.8320101,19.7238229 1.83137255,19.7760684 L1.82352941,33.3991453 C1.82352941,33.5721368 1.63529412,33.6822222 1.48235294,33.5957265" id="Path" fill="#FFFFFF" fill-rule="nonzero"></path>
                    <path d="M1.48235294,33.5957265 L0.333333333,32.9273504 C0.237846235,32.8739604 0.178043369,32.7735337 0.176470588,32.6639316 L0.176470588,17.8023932 C0.176470588,17.5685364 0.301754975,17.3526876 0.5042305,17.2365746 C0.706706025,17.1204616 0.955672567,17.1218336 1.15686275,17.2401709 L21.2156863,28.8659829 C22.1254722,29.3935329 23.2470768,29.3935329 24.1568627,28.8659829 L53.4862745,11.8813675 C53.9176471,11.6336752 54.4588235,11.9482051 54.4588235,12.4475214 L54.4588235,29.2119658 C54.4588235,29.3259829 54.4,29.4282051 54.3019608,29.4832479 L53.1843137,30.0847863 C53.1039749,30.1294388 53.0060483,30.1280546 52.926997,30.0811492 C52.8479457,30.0342438 52.7996147,29.9488454 52.8,29.8567521 L52.8117647,14.4447863 C52.8117647,14.3347009 52.6901961,14.26 52.5882353,14.3189744 L24.1568627,30.7767521 C23.2470768,31.3043022 22.1254722,31.3043022 21.2156863,30.7767521 L2.05098039,19.6463248 C2.00508445,19.6215712 1.9496246,19.6226542 1.9047249,19.6491808 C1.8598252,19.6757074 1.8320101,19.7238229 1.83137255,19.7760684 L1.82352941,33.3991453 C1.82352941,33.5721368 1.63529412,33.6822222 1.48235294,33.5957265 L1.48235294,33.5957265 Z" id="Path" stroke="#FFFFFF" stroke-width="0.7933135"></path>
                    <path d="M4.58823529,26.7979487 L4.58823529,28.2408547 C4.58823529,28.3116239 4.62745098,28.3784615 4.69019608,28.4138462 L18.1843137,36.2377778 C18.7882353,36.5876923 19.1647059,37.2324786 19.1647059,37.9323077 L19.1647059,43.7196581 C19.1647059,43.9555556 19.2862745,44.1757265 19.4901961,44.2897436 L22.1372549,45.8270085 C22.3333333,45.9449573 22.5764706,45.9449573 22.7803922,45.8388034 L25.6078431,44.3211966 C25.8235294,44.2071795 25.9568627,43.9830769 25.9568627,43.7393162 L25.9568627,38.117094 C25.9568627,37.417265 26.3294118,36.768547 26.9372549,36.4186325 L49.8196078,23.2083761 C49.8823529,23.1690598 49.9215686,23.1022222 49.9215686,23.031453 L49.9215686,21.5217094 C49.9215686,21.3644444 49.7529412,21.2661538 49.6156863,21.3447863 L25.3019608,35.4042735 C24.6980591,35.7538302 24.3258832,36.39969 24.3254902,37.0988034 L24.3254902,42.7996581 C24.3254902,43.0434188 24.1921569,43.271453 23.9764706,43.3854701 L22.8235294,43.9948718 C22.6196078,44.1049573 22.3686275,44.0931624 22.1686275,43.9673504 L21.1372549,43.3225641 C20.9411765,43.2046154 20.8235294,42.9883761 20.8235294,42.7603419 L20.8235294,37.0280342 C20.8235294,36.3282051 20.454902,35.6834188 19.8509804,35.3335043 L4.89019608,26.617094 C4.82738295,26.5825596 4.75110161,26.5836026 4.68925125,26.6198416 C4.62740089,26.6560806 4.58905389,26.7222 4.58823529,26.7940171" id="Path" fill="#FFFFFF" fill-rule="nonzero"></path>
                    <path d="M4.58823529,26.7979487 L4.58823529,28.2408547 C4.58823529,28.3116239 4.62745098,28.3784615 4.69019608,28.4138462 L18.1843137,36.2377778 C18.7882353,36.5876923 19.1647059,37.2324786 19.1647059,37.9323077 L19.1647059,43.7196581 C19.1647059,43.9555556 19.2862745,44.1757265 19.4901961,44.2897436 L22.1372549,45.8270085 C22.3333333,45.9449573 22.5764706,45.9449573 22.7803922,45.8388034 L25.6078431,44.3211966 C25.8235294,44.2071795 25.9568627,43.9830769 25.9568627,43.7393162 L25.9568627,38.117094 C25.9568627,37.417265 26.3294118,36.768547 26.9372549,36.4186325 L49.8196078,23.2083761 C49.8823529,23.1690598 49.9215686,23.1022222 49.9215686,23.031453 L49.9215686,21.5217094 C49.9215686,21.3644444 49.7529412,21.2661538 49.6156863,21.3447863 L25.3019608,35.4042735 C24.6980591,35.7538302 24.3258832,36.39969 24.3254902,37.0988034 L24.3254902,42.7996581 C24.3254902,43.0434188 24.1921569,43.271453 23.9764706,43.3854701 L22.8235294,43.9948718 C22.6196078,44.1049573 22.3686275,44.0931624 22.1686275,43.9673504 L21.1372549,43.3225641 C20.9411765,43.2046154 20.8235294,42.9883761 20.8235294,42.7603419 L20.8235294,37.0280342 C20.8235294,36.3282051 20.454902,35.6834188 19.8509804,35.3335043 L4.89019608,26.617094 C4.82738295,26.5825596 4.75110161,26.5836026 4.68925125,26.6198416 C4.62740089,26.6560806 4.58905389,26.7222 4.58823529,26.7940171 L4.58823529,26.7979487 Z" id="Path" stroke="#FFFFFF" stroke-width="0.7933135"></path>
                    <path d="M21.7647059,6.64837607 L29.1764706,2.42581197 C31.0470588,1.34854701 31.7647059,1.39179487 33.6627451,2.42581197 L41.7882353,6.80957265 L21.7647059,6.64837607 Z M28.4980392,1.01435897 L3.70980392,15.3490598 C3.58431373,15.4355556 3.64705882,15.5063248 3.69411765,15.5338462 L4.81176471,16.1904274 C4.94509804,16.2611966 5.10588235,16.2611966 5.23921569,16.1864957 L17.6078431,9.03487179 C18.8039216,8.33897436 19.2705882,8.20923077 20.7058824,8.22102564 L43.2039216,8.40188034 C44.3529412,8.39401709 44.9098039,8.54735043 46.0745098,9.14495726 L49.4078431,10.8119658 C49.5411765,10.882735 49.7058824,10.882735 49.8392157,10.8001709 L50.9764706,10.1475214 C51.027451,10.1082051 51.0627451,10.0924786 50.9764706,10.025641 L34.4784314,0.971111111 C32.1647059,-0.318461538 30.7921569,-0.306666667 28.4941176,1.01435897" id="Shape" fill="#FFFFFF" fill-rule="nonzero"></path>
                    <path d="M21.7647059,6.64837607 L29.1764706,2.42581197 C31.0470588,1.34854701 31.7647059,1.39179487 33.6627451,2.42581197 L41.7882353,6.80957265 L21.7647059,6.64837607 Z M28.4980392,1.01435897 L3.70980392,15.3490598 C3.58431373,15.4355556 3.64705882,15.5063248 3.69411765,15.5338462 L4.81176471,16.1904274 C4.94509804,16.2611966 5.10588235,16.2611966 5.23921569,16.1864957 L17.6078431,9.03487179 C18.8039216,8.33897436 19.2705882,8.20923077 20.7058824,8.22102564 L43.2039216,8.40188034 C44.3529412,8.39401709 44.9098039,8.54735043 46.0745098,9.14495726 L49.4078431,10.8119658 C49.5411765,10.882735 49.7058824,10.882735 49.8392157,10.8001709 L50.9764706,10.1475214 C51.027451,10.1082051 51.0627451,10.0924786 50.9764706,10.025641 L34.4784314,0.971111111 C32.1647059,-0.318461538 30.7921569,-0.306666667 28.4941176,1.01435897 L28.4980392,1.01435897 Z" id="Shape" stroke="#FFFFFF" stroke-width="0.7933135"></path>
                </g>
            </g>
        </g>
    </g>
</svg>