<?xml version="1.0" encoding="UTF-8"?><svg id="b" xmlns="http://www.w3.org/2000/svg" viewBox="0 0 64 64"><g id="c"><path d="m31.87,53.62H9.87c-1,0-1.9-.8-1.9-1.9v-8.31m43.11-11.74l4.16,8.15c.3.6.4,1.2.4,1.8v10.1c0,1.1-.9,1.9-1.9,1.9h-22m-7.29-29h10.55m10.51-16.25h0c-2.26,3.47-6.41,5.2-10.51,4.42v10.78c-.05,3.21,1.68,6.2,4.47,7.83l6.04,3.47h0l6.04-3.47c2.79-1.58,4.52-4.57,4.47-7.83v-10.78c-4.1.79-8.25-.95-10.51-4.42Zm-3.52,13.56l2.63,2.63,4.42-4.42m6.6,23.26v8.31c0,1.1-.9,1.9-1.9,1.9h-22m.13,0H9.87c-1,0-1.9-.8-1.9-1.9v-10.1c0-.6.1-1.2.4-1.8l6.9-13.5c.5-1,1.6-1.7,2.7-1.7,6.6,0,11.5,0,14.8,0h2.24m-23.09,15.9h25.44s14.25,0,14.25,0" style="fill:none; stroke:#000; stroke-linecap:round; stroke-linejoin:round;"/><rect width="64" height="64" style="fill:none; stroke-width:0px;"/></g></svg>