<?xml version="1.0" encoding="UTF-8"?>
<svg width="64px" height="64px" viewBox="0 0 64 64" version="1.1" xmlns="http://www.w3.org/2000/svg" xmlns:xlink="http://www.w3.org/1999/xlink">
    <title>Group 9</title>
    <defs>
        <rect id="path-1" x="0" y="0" width="64" height="64"></rect>
    </defs>
    <g id="⚙️-Icons" stroke="none" stroke-width="1" fill="none" fill-rule="evenodd">
        <g id="Group">
            <mask id="mask-2" fill="white">
                <use xlink:href="#path-1"></use>
            </mask>
            <g id="Mask"></g>
            <g id="Trial" mask="url(#mask-2)">
                <g transform="translate(12.000000, 10.903014)" id="Group-2">
                    <path d="M26.6905325,32.2197296 C19.0679316,32.2196291 12.1491726,27.7633432 8.99653534,20.8232478 C5.8438981,13.8831524 7.03953909,5.74078459 12.0542612,5.96779577e-14 C3.47117915,4.04226191 -1.33578376,13.3371587 0.326191366,22.6777699 C1.98816649,32.0183811 9.70627923,39.084691 19.1569098,39.9182141 C28.6075404,40.7517371 37.4433465,35.1454434 40.7145863,26.2399301 C37.0528595,30.0649876 31.9857449,32.2255846 26.6905325,32.2197296 Z" id="Path" stroke="#000000" stroke-linecap="round" stroke-linejoin="round" fill-rule="nonzero"></path>
                    <path d="M12.0542612,0 C7.03953909,5.74078459 5.8438981,13.8831524 8.99653534,20.8232478 C12.1491726,27.7633432 19.0679316,32.2197455 26.6905325,32.2197455 C31.9832732,32.2236399 37.0474493,30.0631991 40.7074675,26.2399301" id="Path" stroke="#000000" stroke-linecap="round" stroke-linejoin="round"></path>
                    <polygon id="Path" fill="#000000" fill-rule="nonzero" points="19.3398864 5.70928484 20.2154999 8.69206581 23.1911621 9.56056052 20.2154999 10.4290552 19.3398864 13.4047174 18.4785105 10.4290552 15.4957296 9.56056052 18.4785105 8.69206581"></polygon>
                    <polygon id="Path" fill="#000000" fill-rule="nonzero" points="31.8018374 15.6301382 32.4069362 17.7159492 34.4927472 18.321048 32.4069362 18.9261468 31.8018374 21.0119578 31.1896198 18.9261468 29.1038088 18.321048 31.1896198 17.7159492"></polygon>
                    <polygon id="Path" fill="#000000" fill-rule="nonzero" points="21.1378615 18.7367053 21.6361781 20.4381007 23.3375735 20.9364173 21.6361781 21.4276152 21.1378615 23.1290105 20.6395449 21.4276152 18.9381495 20.9364173 20.6395449 20.4381007"></polygon>
                    <polygon id="Path" fill="#000000" fill-rule="nonzero" points="29.3384123 8.71745744 29.6516399 9.77815998 30.7123424 10.0913876 29.6516399 10.3974964 29.3384123 11.4653177 29.0251847 10.3974964 27.9644822 10.0913876 29.0251847 9.77815998"></polygon>
                </g>
            </g>
        </g>
    </g>
</svg>