<svg fill="none" height="24" viewBox="0 0 77 24" width="77" xmlns="http://www.w3.org/2000/svg"><g fill="#fff"><path clip-rule="evenodd" d="m.543762 4v16h16.000038v-16zm6.985268 12.2653-4.40422-4.4758 1.96211-1.99582 2.44211 2.47582 4.47157-4.54318 1.9621 1.99579-6.43367 6.53899z" fill-rule="evenodd"/><path d="m23.5627 13.0189c1.5832 0 1.8821.5264 1.8821 1.6758v.1642c0 .9685.0126 1.7011.1769 2.1179h1.6926c-.1347-.4294-.1347-1.2042-.1347-1.8526v-.4421c0-1.701-.6948-2.2274-1.2674-2.4084.7621-.2779 1.461-.9979 1.461-2.2569 0-1.49469-1.0779-2.61469-3.0947-2.61469h-3.9958v9.57469h1.7474v-3.9579h1.541zm-1.541-4.16416h1.8947c1.1032 0 1.6505.48421 1.6505 1.34316 0 .8589-.4926 1.3684-1.7179 1.3684h-1.8273zm12.5979 4.92636c.0252-.2064.0252-.3748.0252-.6106 0-1.6884-.7916-3.47366-3.1495-3.47366-2.2105 0-3.3136 1.61686-3.3136 3.81896 0 1.8526.9684 3.6253 3.2336 3.6253 2.1137 0 2.8758-1.3558 3.1369-2.24h-1.7053c-.1895.4547-.4758.8715-1.3768.8715-1.0484 0-1.5832-.9263-1.5832-1.9915zm-4.6906-1.0948c.0969-1.0105.5179-1.7305 1.5537-1.7305s1.4442.7747 1.4611 1.7305zm5.0779-2.82104 2.4 7.11154h1.8021l2.5095-7.11154h-1.6926c-.7621 2.39154-1.4611 4.52214-1.6506 5.57474h-.0126c-.1642-.8716-.7621-3.0021-1.5284-5.57474zm7.4484 7.11154h1.6927v-7.11154h-1.6927zm1.6927-8.43785v-1.67579h-1.6927v1.67579zm7.5452 5.24215c.0295-.2064.0295-.3748.0295-.6106 0-1.6884-.7916-3.47366-3.1495-3.47366-2.2105 0-3.3136 1.61686-3.3136 3.81896 0 1.8526.9684 3.6253 3.2336 3.6253 2.1137 0 2.8758-1.3558 3.1369-2.24h-1.7053c-.1895.4547-.4758.8715-1.3768.8715-1.0484 0-1.5832-.9263-1.5832-1.9915h4.7326zm-4.6905-1.0948c.0969-1.0105.5179-1.7305 1.5537-1.7305s1.4442.7747 1.4568 1.7305h-3.0147zm5.1074-2.82104 2.0042 7.11154h1.8274c.6821-2.6442 1.1452-4.4421 1.2673-5.301h.0127c.1515.8842.6021 2.6442 1.2126 5.301h1.8147l2.1137-7.11154h-1.6926c-.9137 3.66734-1.1453 4.73264-1.3095 5.47794h-.0126c-.0969-.7327-.3663-1.7979-1.2548-5.47794h-1.5958c-.9136 3.48634-1.2126 4.81264-1.3515 5.56214h-.0127c-.1347-.8295-.5305-2.5474-1.2421-5.56214h-1.7852zm16.9726 3.91584c.0295-.2064.0295-.3748.0295-.6106 0-1.6884-.7916-3.47366-3.1495-3.47366-2.2105 0-3.3137 1.61686-3.3137 3.81896 0 1.8526.9684 3.6253 3.2337 3.6253 2.1137 0 2.8758-1.3558 3.1369-2.24h-1.7053c-.1895.4547-.4758.8715-1.3769.8715-1.0484 0-1.5831-.9263-1.5831-1.9915h4.7326zm-4.6905-1.0948c.0968-1.0105.5179-1.7305 1.5537-1.7305s1.4442.7747 1.461 1.7305zm10.4505-5.82314v3.59574c-.1768-.3452-.7242-.76206-1.7979-.76206-1.9789 0-3.1789 1.59156-3.1789 3.78946s1.1326 3.6505 2.9052 3.6505c1.0905 0 1.7306-.3747 2.0716-.9979 0 .1937.0421.6232.0674.8295h1.6379c-.0127-.6652-.0127-1.3137-.0127-1.9789v-8.12634zm-3.2337 6.57264c0-1.4653.6021-2.3369 1.6927-2.3369 1.3768 0 1.5957.939 1.5957 2.2822 0 1.2042-.2189 2.3663-1.6505 2.3663-1.0105 0-1.6379-.8169-1.6379-2.3116z"/></g></svg>