<?xml version="1.0" encoding="UTF-8"?>
<svg width="200px" height="24px" viewBox="0 0 200 24" version="1.1" xmlns="http://www.w3.org/2000/svg" xmlns:xlink="http://www.w3.org/1999/xlink">
    <!-- Generator: Sketch 59.1 (86144) - https://sketch.com -->
    <title>logo/sleepopolis</title>
    <desc>Created with Sketch.</desc>
    <g id="Homepage" stroke="none" stroke-width="1" fill="none" fill-rule="evenodd">
        <g id="Homepage-Mattress-Quotes" transform="translate(-229.000000, -250.000000)">
            <g id="quote/affiliate_desktop-copy">
                <g id="logo/sleepopolis" transform="translate(229.000000, 250.000000)">
                    <g id="Sleepopolis---Mattress-Reviews,-Independent-&amp;-Unbiased-0">
                        <path d="M108.848758,19.2054176 C108.544018,19.4650113 108.223476,19.7065463 107.884876,19.9322799 C105.688488,21.3927765 103.054176,21.9097065 100.467269,21.3882619 C100.148984,21.3250564 99.8352144,21.2460497 99.5282167,21.1534989 C97.3431151,20.489842 95.4740406,19.1015801 94.1918736,17.1738149 C92.731377,14.9774266 92.2121896,12.3431151 92.7336343,9.75395034 C93.7110609,4.90744921 98.1038375,1.6027088 102.89842,1.83972912 C102.801354,1.90970655 102.706546,1.98194131 102.613995,2.05643341 C102.065463,2.496614 101.557562,3 101.110609,3.56433409 C100.611738,4.18510158 100.182844,4.87358916 99.8374718,5.62302483 C99.503386,6.34085779 99.2121896,7.55756208 99.1173815,8.38600451 C98.6568849,12.4288939 100.266366,15.7042889 103.386005,17.9819413 C104.076749,18.4875847 105.051919,18.9571106 105.930023,19.1354402 C105.943567,19.1376975 105.954853,19.1399549 105.968397,19.1422122 C106.939052,19.3363431 107.909707,19.3498871 108.848758,19.2054176 Z" id="Path" fill="#FDCC80" fill-rule="nonzero"></path>
                        <g id="Group" fill="#FFFFFF" fill-rule="nonzero">
                            <path d="M12.5282167,4.67945824 C12.0925508,4.07674944 11.5011287,3.58465011 10.751693,3.20090293 C10.0045147,2.81715576 9.16252822,2.62528217 8.22799097,2.62528217 C7.72911964,2.62528217 7.22573363,2.69300226 6.71783296,2.82844244 C6.20767494,2.96388262 5.74717833,3.18284424 5.33182844,3.48306998 C4.91647856,3.78329571 4.5778781,4.15801354 4.32054176,4.60496614 C4.06094808,5.05191874 3.93002257,5.58690745 3.93002257,6.20993228 C3.93002257,6.81264108 4.0496614,7.31602709 4.28893905,7.72009029 C4.5282167,8.1241535 4.84875847,8.46726862 5.25507901,8.74717833 C5.65914221,9.02708804 6.13769752,9.26636569 6.68848758,9.46275395 C7.23927765,9.66139955 7.8261851,9.86230248 8.44920993,10.0699774 C9.19638826,10.2979684 9.95485327,10.5575621 10.7223476,10.8487585 C11.489842,11.1399549 12.1873589,11.523702 12.8103837,12.0022573 C13.4334086,12.4808126 13.9413093,13.0767494 14.3363431,13.7945824 C14.731377,14.510158 14.9277652,15.4198646 14.9277652,16.5214447 C14.9277652,17.6636569 14.7155756,18.6546275 14.2889391,19.496614 C13.8623025,20.3386005 13.2979684,21.03386 12.5914221,21.5846501 C11.8848758,22.1354402 11.0699774,22.5462754 10.1467269,22.8148984 C9.2234763,23.0835214 8.2731377,23.2189616 7.29571106,23.2189616 C5.90519187,23.2189616 4.55981941,22.9480813 3.26185102,22.4085779 C1.96388262,21.8690745 0.889390519,21.0699774 0.0383747178,20.0090293 L2.43792325,17.9841986 C2.95711061,18.7539503 3.6523702,19.3769752 4.52595937,19.8532731 C5.3972912,20.3318284 6.34311512,20.5688488 7.36117381,20.5688488 C7.88036117,20.5688488 8.39954853,20.496614 8.91873589,20.3498871 C9.43792325,20.2054176 9.90970655,19.9751693 10.3363431,19.6636569 C10.7607223,19.3521445 11.1106095,18.9638826 11.3792325,18.496614 C11.6478555,18.0293454 11.7832957,17.462754 11.7832957,16.7990971 C11.7832957,16.1354402 11.6433409,15.5801354 11.3634312,15.1331828 C11.0835214,14.6862302 10.7042889,14.3069977 10.2257336,13.9954853 C9.74717833,13.6839729 9.19187359,13.4198646 8.55981941,13.2009029 C7.9255079,12.9819413 7.25733634,12.7607223 6.55079007,12.530474 C5.84424379,12.3227991 5.1489842,12.0677201 4.46275395,11.7674944 C3.7765237,11.4672686 3.16478555,11.0812641 2.62528217,10.6139955 C2.08577878,10.1467269 1.64785553,9.57110609 1.31602709,8.88487585 C0.984198646,8.1986456 0.817155756,7.3476298 0.817155756,6.32957111 C0.817155756,5.22799097 1.04063205,4.28442438 1.48758465,3.49435666 C1.93453725,2.70428894 2.51467269,2.05191874 3.23250564,1.53273138 C3.94808126,1.01354402 4.75846501,0.634311512 5.66139955,0.39503386 C6.56433409,0.155756208 7.47404063,0.0361173815 8.38600451,0.0361173815 C9.67268623,0.0361173815 10.8781038,0.264108352 12,0.72234763 C13.1218962,1.18058691 14.0248307,1.79232506 14.7110609,2.55981941 L12.5282167,4.67945824 Z" id="Path"></path>
                            <polygon id="Path" points="22.3724605 19.9119639 32.2167043 19.9119639 32.2167043 22.6523702 19.2889391 22.6523702 19.2889391 0.598194131 22.3724605 0.598194131 22.3724605 19.9119639"></polygon>
                            <polygon id="Path" points="38.2889391 19.9119639 49.8148984 19.9119639 49.8148984 22.6523702 35.2054176 22.6523702 35.2054176 0.598194131 49.3476298 0.598194131 49.3476298 3.30925508 38.2889391 3.30925508 38.2889391 9.91422122 48.6930023 9.91422122 48.6930023 12.5620767 38.2889391 12.5620767"></polygon>
                            <polygon id="Path" points="57.0112867 19.9119639 68.537246 19.9119639 68.537246 22.6523702 53.9277652 22.6523702 53.9277652 0.598194131 68.0699774 0.598194131 68.0699774 3.30925508 57.0112867 3.30925508 57.0112867 9.91422122 67.4153499 9.91422122 67.4153499 12.5620767 57.0112867 12.5620767 57.0112867 19.9119639"></polygon>
                            <path d="M72.6501129,0.598194131 L79.3792325,0.598194131 C80.5620767,0.598194131 81.6433409,0.717832957 82.6185102,0.957110609 C83.5936795,1.19638826 84.4243792,1.56433409 85.1106095,2.06320542 C85.7968397,2.56207675 86.3250564,3.19638826 86.6997743,3.96388262 C87.0744921,4.73137698 87.2595937,5.65688488 87.2595937,6.73589165 C87.2595937,7.83747178 87.0564334,8.78103837 86.6523702,9.57110609 C86.248307,10.3611738 85.6862302,11.0045147 84.9706546,11.503386 C84.255079,12.0022573 83.4018059,12.3702032 82.4153499,12.6094808 C81.4288939,12.8487585 80.3634312,12.9683973 79.221219,12.9683973 L75.7336343,12.9683973 L75.7336343,22.6568849 L72.6501129,22.6568849 L72.6501129,0.598194131 Z M75.7336343,10.3476298 L79.0045147,10.3476298 C79.751693,10.3476298 80.4424379,10.2799097 81.0767494,10.1444695 C81.7110609,10.0090293 82.255079,9.8013544 82.7133183,9.5214447 C83.1693002,9.24153499 83.523702,8.87358916 83.772009,8.41534989 C84.020316,7.95936795 84.1467269,7.3972912 84.1467269,6.73363431 C84.1467269,6.06997743 84.0158014,5.51467269 83.7562077,5.06772009 C83.496614,4.62076749 83.1444695,4.25733634 82.6975169,3.97742664 C82.2505643,3.69751693 81.7155756,3.49887133 81.0925508,3.38600451 C80.469526,3.2731377 79.7945824,3.21444695 79.0677201,3.21444695 L75.7336343,3.21444695 L75.7336343,10.3476298 Z" id="Shape"></path>
                            <path d="M113.426637,11.5936795 C113.426637,13.2957111 113.130926,14.8600451 112.539503,16.282167 C111.948081,17.7042889 111.133183,18.9300226 110.094808,19.9571106 C109.056433,20.9841986 107.82167,21.785553 106.388262,22.3566591 C104.954853,22.9277652 103.397291,23.2121896 101.715576,23.2121896 C100.03386,23.2121896 98.4808126,22.9255079 97.0586907,22.3566591 C95.6365688,21.785553 94.4063205,20.986456 93.3679458,19.9571106 C92.3295711,18.9300226 91.5191874,17.7042889 90.9390519,16.282167 C90.3566591,14.8600451 90.0677201,13.2979684 90.0677201,11.5936795 C90.0677201,9.87133183 90.3589165,8.2979684 90.9390519,6.87358916 C91.5191874,5.45146727 92.3295711,4.23702032 93.3679458,3.22799097 C94.4063205,2.22121896 95.6365688,1.43792325 97.0586907,0.875846501 C98.4808126,0.316027088 100.03386,0.0338600451 101.715576,0.0338600451 C103.397291,0.0338600451 104.954853,0.313769752 106.388262,0.875846501 C107.82167,1.43566591 109.056433,2.22121896 110.094808,3.22799097 C111.133183,4.23476298 111.948081,5.45146727 112.539503,6.87358916 C113.130926,8.2979684 113.426637,9.87133183 113.426637,11.5936795 Z M110.092551,11.5936795 C110.092551,10.3905192 109.893905,9.25282167 109.501129,8.18284424 C109.106095,7.11286682 108.546275,6.1738149 107.819413,5.36343115 C107.092551,4.5530474 106.214447,3.91422122 105.187359,3.4469526 C104.160271,2.97968397 103.002257,2.74717833 101.713318,2.74717833 C100.446953,2.74717833 99.2979684,2.97968397 98.2708804,3.4469526 C97.2437923,3.91422122 96.3702032,4.5530474 95.6546275,5.36343115 C94.9390519,6.1738149 94.3814898,7.11286682 93.9887133,8.18284424 C93.5936795,9.25282167 93.3972912,10.3905192 93.3972912,11.5936795 C93.3972912,12.8194131 93.5936795,13.972912 93.9887133,15.0519187 C94.3837472,16.1309255 94.9435666,17.0722348 95.6704289,17.8713318 C96.3972912,18.6704289 97.268623,19.3002257 98.2866817,19.7562077 C99.3047404,20.2121896 100.446953,20.4424379 101.713318,20.4424379 C102.979684,20.4424379 104.133183,20.214447 105.171558,19.7562077 C106.209932,19.3002257 107.092551,18.6704289 107.819413,17.8713318 C108.546275,17.0722348 109.106095,16.1309255 109.501129,15.0519187 C109.896163,13.972912 110.092551,12.8194131 110.092551,11.5936795 Z" id="Shape"></path>
                            <path d="M117.632054,0.598194131 L124.361174,0.598194131 C125.544018,0.598194131 126.625282,0.717832957 127.600451,0.957110609 C128.575621,1.19638826 129.406321,1.56433409 130.092551,2.06320542 C130.778781,2.56207675 131.306998,3.19638826 131.681716,3.96388262 C132.056433,4.73137698 132.241535,5.65688488 132.241535,6.73589165 C132.241535,7.83747178 132.038375,8.78103837 131.634312,9.57110609 C131.230248,10.3611738 130.668172,11.0045147 129.952596,11.503386 C129.23702,12.0022573 128.383747,12.3702032 127.397291,12.6094808 C126.410835,12.8487585 125.345372,12.9683973 124.205418,12.9683973 L120.715576,12.9683973 L120.715576,22.6568849 L117.632054,22.6568849 L117.632054,0.598194131 L117.632054,0.598194131 Z M120.715576,10.3476298 L123.986456,10.3476298 C124.733634,10.3476298 125.424379,10.2799097 126.058691,10.1444695 C126.690745,10.0090293 127.23702,9.8013544 127.69526,9.5214447 C128.151242,9.24153499 128.505643,8.87358916 128.75395,8.41534989 C129.002257,7.95936795 129.128668,7.3972912 129.128668,6.73363431 C129.128668,6.06997743 128.997743,5.51467269 128.740406,5.06772009 C128.480813,4.62076749 128.128668,4.25733634 127.681716,3.97742664 C127.234763,3.69751693 126.699774,3.49887133 126.076749,3.38600451 C125.453725,3.2731377 124.778781,3.21444695 124.051919,3.21444695 L120.717833,3.21444695 L120.717833,10.3476298 L120.715576,10.3476298 Z" id="Shape"></path>
                            <path d="M158.408578,11.5936795 C158.408578,13.2957111 158.112867,14.8600451 157.521445,16.282167 C156.930023,17.7042889 156.115124,18.9300226 155.076749,19.9571106 C154.038375,20.9841986 152.803612,21.785553 151.370203,22.3566591 C149.936795,22.9277652 148.379233,23.2121896 146.697517,23.2121896 C145.015801,23.2121896 143.462754,22.9255079 142.040632,22.3566591 C140.61851,21.785553 139.388262,20.986456 138.349887,19.9571106 C137.311512,18.9300226 136.501129,17.7042889 135.920993,16.282167 C135.3386,14.8600451 135.049661,13.2979684 135.049661,11.5936795 C135.049661,9.87133183 135.340858,8.2979684 135.920993,6.87358916 C136.503386,5.45146727 137.311512,4.23702032 138.349887,3.22799097 C139.388262,2.22121896 140.61851,1.43792325 142.040632,0.875846501 C143.462754,0.316027088 145.015801,0.0338600451 146.697517,0.0338600451 C148.379233,0.0338600451 149.936795,0.313769752 151.370203,0.875846501 C152.803612,1.43792325 154.038375,2.22121896 155.076749,3.22799097 C156.115124,4.23476298 156.930023,5.45146727 157.521445,6.87358916 C158.112867,8.2979684 158.408578,9.87133183 158.408578,11.5936795 Z M155.074492,11.5936795 C155.074492,10.3905192 154.875847,9.25282167 154.48307,8.18284424 C154.088036,7.11286682 153.528217,6.1738149 152.801354,5.36343115 C152.074492,4.5530474 151.196388,3.91422122 150.1693,3.4469526 C149.142212,2.97968397 147.984199,2.74717833 146.69526,2.74717833 C145.428894,2.74717833 144.282167,2.97968397 143.252822,3.4469526 C142.225734,3.91422122 141.352144,4.5530474 140.636569,5.36343115 C139.920993,6.1738149 139.363431,7.11286682 138.970655,8.18284424 C138.575621,9.25282167 138.379233,10.3905192 138.379233,11.5936795 C138.379233,12.8194131 138.575621,13.972912 138.970655,15.0519187 C139.365688,16.1309255 139.925508,17.0722348 140.65237,17.8713318 C141.379233,18.6704289 142.250564,19.3002257 143.268623,19.7562077 C144.286682,20.2121896 145.428894,20.4424379 146.69526,20.4424379 C147.961625,20.4424379 149.115124,20.214447 150.153499,19.7562077 C151.191874,19.3002257 152.074492,18.6704289 152.801354,17.8713318 C153.528217,17.0722348 154.088036,16.1309255 154.48307,15.0519187 C154.878104,13.972912 155.074492,12.8194131 155.074492,11.5936795 Z" id="Shape"></path>
                            <polygon id="Path" points="165.697517 19.9119639 175.541761 19.9119639 175.541761 22.6523702 162.613995 22.6523702 162.613995 0.598194131 165.697517 0.598194131"></polygon>
                            <path d="M181.801354,2.55981941 C181.801354,3.0993228 181.609481,3.5462754 181.230248,3.89841986 C180.848758,4.25282167 180.390519,4.42889391 179.85553,4.42889391 C179.320542,4.42889391 178.866817,4.248307 178.496614,3.88487585 C178.126411,3.5214447 177.941309,3.08126411 177.941309,2.55981941 C177.941309,2.02031603 178.126411,1.56884876 178.496614,1.20541761 C178.866817,0.841986456 179.320542,0.659142212 179.85553,0.659142212 C180.390519,0.659142212 180.848758,0.841986456 181.230248,1.20541761 C181.611738,1.56884876 181.801354,2.02031603 181.801354,2.55981941 Z M181.334086,22.6523702 L178.406321,22.6523702 L178.406321,7.88713318 L181.334086,7.88713318 L181.334086,22.6523702 Z" id="Shape"></path>
                            <path d="M197.564334,4.67945824 C197.128668,4.07674944 196.537246,3.58465011 195.78781,3.20090293 C195.040632,2.81715576 194.198646,2.62528217 193.264108,2.62528217 C192.765237,2.62528217 192.261851,2.69300226 191.75395,2.82844244 C191.243792,2.96388262 190.783296,3.18284424 190.367946,3.48306998 C189.952596,3.78329571 189.613995,4.15801354 189.354402,4.60496614 C189.094808,5.05191874 188.96614,5.58690745 188.96614,6.20993228 C188.96614,6.81264108 189.085779,7.31602709 189.325056,7.72009029 C189.564334,8.1241535 189.884876,8.46726862 190.291196,8.74717833 C190.697517,9.02708804 191.173815,9.26636569 191.724605,9.46275395 C192.275395,9.66139955 192.862302,9.86230248 193.485327,10.0699774 C194.232506,10.2979684 194.990971,10.5575621 195.758465,10.8487585 C196.525959,11.1399549 197.223476,11.523702 197.846501,12.0022573 C198.469526,12.4808126 198.977427,13.0767494 199.37246,13.7945824 C199.767494,14.510158 199.963883,15.4198646 199.963883,16.5214447 C199.963883,17.6636569 199.751693,18.6546275 199.325056,19.496614 C198.89842,20.3386005 198.334086,21.03386 197.62754,21.5846501 C196.920993,22.1354402 196.106095,22.5462754 195.182844,22.8148984 C194.259594,23.0835214 193.309255,23.2189616 192.331828,23.2189616 C190.941309,23.2189616 189.595937,22.9480813 188.297968,22.4085779 C187,21.8690745 185.925508,21.0699774 185.074492,20.0090293 L187.474041,17.9841986 C187.993228,18.7539503 188.688488,19.3769752 189.562077,19.8532731 C190.433409,20.3318284 191.379233,20.5688488 192.397291,20.5688488 C192.916479,20.5688488 193.435666,20.496614 193.954853,20.3498871 C194.474041,20.2054176 194.945824,19.9751693 195.37246,19.6636569 C195.79684,19.3521445 196.146727,18.9638826 196.41535,18.496614 C196.683973,18.0293454 196.819413,17.462754 196.819413,16.7990971 C196.819413,16.1354402 196.679458,15.5801354 196.399549,15.1331828 C196.119639,14.6862302 195.740406,14.3069977 195.261851,13.9954853 C194.783296,13.6839729 194.227991,13.4198646 193.595937,13.2009029 C192.961625,12.9819413 192.293454,12.7607223 191.586907,12.530474 C190.880361,12.3227991 190.185102,12.0677201 189.498871,11.7674944 C188.812641,11.4672686 188.200903,11.0812641 187.6614,10.6139955 C187.121896,10.1467269 186.683973,9.57110609 186.352144,8.88487585 C186.020316,8.1986456 185.853273,7.3476298 185.853273,6.32957111 C185.853273,5.22799097 186.076749,4.28442438 186.523702,3.49435666 C186.970655,2.70428894 187.55079,2.05191874 188.268623,1.53273138 C188.984199,1.01354402 189.794582,0.634311512 190.697517,0.39503386 C191.600451,0.155756208 192.510158,0.0361173815 193.424379,0.0361173815 C194.711061,0.0361173815 195.916479,0.264108352 197.038375,0.72234763 C198.160271,1.18058691 199.063205,1.79232506 199.749436,2.55981941 L197.564334,4.67945824 Z" id="Path"></path>
                        </g>
                    </g>
                </g>
            </g>
        </g>
    </g>
</svg>