<?xml version="1.0" encoding="UTF-8"?><svg id="b" xmlns="http://www.w3.org/2000/svg" viewBox="0 0 64 64"><g id="c"><path d="m46.5,16.38c-.68.64-1.44,1.95.4,3.91,2.5,2.68.01,4.64.01,4.64m-5.19,25.63c-1.07-5.7-6.07-9.48-12.03-10.03m8.89,17.9c2.7-.01,5.39-.46,7.44-1.34,4.17-1.79,4.15-4.7-.05-6.49-.61-.26-1.28-.48-1.98-.67m-9.5,8.18c.49.08.99.15,1.5.2m-5.07-14.3c1.37.38,4.26,1.57,4.26,5.45-1.6.21-3.11.59-4.37,1.13-4.17,1.79-4.15,4.7.05,6.49.45.19.94.37,1.45.52m.77-5.26c-2.52.8-2.51,2.1.03,2.9,1.85.58,4.53.74,6.82.47m3.61-31l-12.95-7.52m12.36,7.2l-14.2-8.27c-.26-.15-.55-.28-.85-.36m11.39-5.44l-9.31,1.39.82-.12-2.91.44,11.39-1.7Zm-4.68,9.21v-2.99.65-6.15m4.68,11.21v-3.21.51V7.91c0-1.29-1.05-2.34-2.34-2.34l-11.39,1.69m-6.63,13c1.2-1.47,2.6-2.71,4.08-3.55.07-.04.14-.08.2-.11l-2.23,1.55c-3.55,3.07-6.17,8.28-6.16,12.68,0,2.57.92,4.38,2.38,5.24l14.75,8.57m6.1-.78c1.06-.64,2.07-1.48,3-2.47l-.58.59c3.18-3.12,5.45-7.92,5.44-12.02-.02-5.18-3.69-7.28-8.19-4.67-4.51,2.6-8.16,8.92-8.15,14.11,0,3.11,1.33,5.11,3.37,5.64m-5.05-17.57V9.6c0-1.29-1.05-2.34-2.34-2.34h0c-1.29,0-2.34,1.05-2.34,2.34v17.87c0,1.29,1.05,2.34,2.34,2.34h0c1.29,0,2.34-1.05,2.34-2.34Z" style="fill:none; stroke:#000; stroke-linecap:round; stroke-linejoin:round;"/><rect width="64" height="64" style="fill:none; stroke-width:0px;"/></g></svg>