<?xml version="1.0" encoding="UTF-8" standalone="no"?>
<!DOCTYPE svg PUBLIC "-//W3C//DTD SVG 1.1//EN" "http://www.w3.org/Graphics/SVG/1.1/DTD/svg11.dtd">
<svg width="100%" height="100%" viewBox="0 0 159 182" version="1.1" xmlns="http://www.w3.org/2000/svg" xmlns:xlink="http://www.w3.org/1999/xlink" xml:space="preserve" xmlns:serif="http://www.serif.com/" style="fill-rule:evenodd;clip-rule:evenodd;stroke-linejoin:round;stroke-miterlimit:2;">
    <g id="Supporter---Black" serif:id="Supporter - Black" transform="matrix(1,0,0,1,-316.43,-215.71)">
        <rect x="316.43" y="215.71" width="158.25" height="181.13" style="fill:none;"/>
        <g>
            <path d="M316.43,215.71L316.43,394.69C322.46,393.11 327.31,387.6 331.69,381.73C338.37,372.79 345.1,367.07 354.56,367.07C364.7,367.07 365.9,374.03 365.9,376.68L360.21,377.63C360.21,375.85 360.14,372.79 355.11,372.69C350.6,372.6 344.63,378.58 344.92,386.69C345.14,392.68 350.61,396.82 357.17,396.82C363.56,396.82 372.14,391.13 379.15,381.75C385.83,372.81 392.56,367.09 402.02,367.09C412.16,367.09 413.36,374.05 413.36,376.69L407.67,377.64C407.67,375.86 407.6,372.8 402.57,372.7C398.06,372.61 393.01,378.59 393.3,386.7C393.52,392.69 398.99,396.83 405.55,396.83C411.94,396.83 419.6,391.14 426.61,381.76C433.29,372.82 440.02,367.1 449.48,367.1C459.62,367.1 460.82,374.06 460.82,376.7L455.13,377.65C455.13,375.87 455.06,372.81 450.03,372.71C445.52,372.62 440.47,378.6 440.76,386.71C440.98,392.7 446.45,396.84 453.01,396.84C462.29,396.84 470.28,387.87 474.68,382.73L474.68,215.73L316.43,215.71Z" style="fill-rule:nonzero;"/>
        </g>
        <g transform="matrix(1,0,0,1,327.9,246.699)">
            <g>
                <path d="M8.123,0.381C12.962,0.381 15.162,-1.76 15.162,-4.927C15.162,-7.42 13.842,-9.472 8.886,-10.264C5.015,-10.909 4.37,-11.76 4.37,-12.933C4.37,-14.253 5.455,-15.132 7.42,-15.132C9.912,-15.132 10.909,-13.901 11.467,-11.584L14.751,-12.258C14.077,-15.484 12.2,-17.977 7.566,-17.977C3.285,-17.977 0.997,-15.983 0.997,-12.874C0.997,-10.206 2.551,-8.241 7.42,-7.478C10.733,-6.98 11.76,-6.247 11.76,-4.81C11.76,-3.402 10.587,-2.522 8.329,-2.522C5.631,-2.522 3.93,-3.988 3.461,-6.481L0.235,-5.836C0.645,-2.434 2.786,0.352 8.123,0.381Z" style="fill:white;fill-rule:nonzero;"/>
                <path d="M26.1,0L29.268,0L29.268,-13.783L26.1,-13.783L26.1,-5.631C26.1,-3.666 24.869,-2.493 22.845,-2.493C20.704,-2.493 19.971,-3.959 19.971,-5.631L19.971,-13.783L16.804,-13.783L16.804,-4.78C16.804,-1.818 18.065,0.381 21.379,0.381C23.696,0.381 25.455,-0.821 26.071,-3.783L26.1,-3.783L26.1,0Z" style="fill:white;fill-rule:nonzero;"/>
                <path d="M38.476,-2.463C36.189,-2.463 34.781,-4.164 34.781,-6.804L34.781,-7.038C34.781,-9.766 36.189,-11.291 38.476,-11.291C40.91,-11.291 42.025,-9.707 42.025,-6.95C42.025,-4.135 40.852,-2.463 38.476,-2.463ZM45.163,-6.95C45.163,-11.408 43.315,-14.135 39.766,-14.135C37.068,-14.135 35.485,-12.669 34.84,-9.883L34.781,-9.883L34.781,-13.783L31.614,-13.783L31.614,4.018L34.781,4.018L34.781,-3.93L34.84,-3.93C35.455,-1.114 36.98,0.381 39.737,0.381C43.227,0.381 45.163,-2.375 45.163,-6.95Z" style="fill:white;fill-rule:nonzero;"/>
                <path d="M53.696,-2.463C51.409,-2.463 50.001,-4.164 50.001,-6.804L50.001,-7.038C50.001,-9.766 51.409,-11.291 53.696,-11.291C56.131,-11.291 57.245,-9.707 57.245,-6.95C57.245,-4.135 56.072,-2.463 53.696,-2.463ZM60.383,-6.95C60.383,-11.408 58.535,-14.135 54.987,-14.135C52.289,-14.135 50.705,-12.669 50.06,-9.883L50.001,-9.883L50.001,-13.783L46.834,-13.783L46.834,4.018L50.001,4.018L50.001,-3.93L50.06,-3.93C50.676,-1.114 52.201,0.381 54.957,0.381C58.447,0.381 60.383,-2.375 60.383,-6.95Z" style="fill:white;fill-rule:nonzero;"/>
                <path d="M68.448,0.381C72.817,0.381 75.486,-2.405 75.486,-6.921C75.486,-11.467 72.671,-14.135 68.448,-14.135C64.195,-14.135 61.38,-11.467 61.38,-6.921C61.38,-2.405 64.019,0.381 68.448,0.381ZM68.448,-11.261C70.882,-11.261 72.348,-9.59 72.348,-6.95C72.348,-4.282 70.94,-2.522 68.418,-2.522C65.926,-2.522 64.547,-4.282 64.547,-6.95C64.547,-9.59 65.984,-11.261 68.448,-11.261Z" style="fill:white;fill-rule:nonzero;"/>
                <path d="M80.325,0L80.325,-6.98C80.325,-9.384 81.293,-10.235 83.756,-10.235L85.105,-10.235L85.105,-13.783L84.313,-13.783C82.231,-13.783 80.999,-12.845 80.383,-9.267L80.325,-9.267L80.325,-13.783L77.157,-13.783L77.157,0L80.325,0Z" style="fill:white;fill-rule:nonzero;"/>
                <path d="M87.275,-4.194C87.275,-1.613 88.565,0.381 91.586,0.381C92.935,0.381 93.668,0.205 94.665,-0.117L94.284,-3.021C93.668,-2.874 93.023,-2.698 92.319,-2.698C90.941,-2.698 90.413,-3.373 90.413,-4.722L90.413,-11.115L94.489,-11.115L94.489,-13.783L90.413,-13.783L90.413,-17.449L87.275,-17.449L87.275,-13.783L85.398,-13.783L85.398,-11.115L87.275,-11.115L87.275,-4.194Z" style="fill:white;fill-rule:nonzero;"/>
                <path d="M102.407,-11.467C104.578,-11.467 105.692,-10.352 105.868,-8.211L98.654,-8.211C99.006,-10.44 100.325,-11.467 102.407,-11.467ZM102.495,0.352C106.132,0.352 108.009,-1.466 108.713,-4.106L105.956,-4.897C105.545,-3.49 104.724,-2.405 102.525,-2.405C100.267,-2.405 98.918,-3.548 98.624,-5.865L108.742,-5.865C108.801,-6.598 108.801,-7.156 108.801,-7.713C108.801,-11.496 106.689,-14.135 102.495,-14.135C98.214,-14.135 95.457,-11.379 95.457,-6.716C95.457,-2.17 98.272,0.352 102.495,0.352Z" style="fill:white;fill-rule:nonzero;"/>
                <path d="M113.669,0L113.669,-6.98C113.669,-9.384 114.637,-10.235 117.1,-10.235L118.449,-10.235L118.449,-13.783L117.657,-13.783C115.575,-13.783 114.343,-12.845 113.727,-9.267L113.669,-9.267L113.669,-13.783L110.501,-13.783L110.501,0L113.669,0Z" style="fill:white;fill-rule:nonzero;"/>
            </g>
        </g>
        <g>
            <path d="M336.69,333.82C339.72,333.82 341.42,335.73 341.89,338.79L345.12,338.23C344.53,333.76 341.47,330.79 336.77,330.79C331.45,330.79 327.89,334.55 327.89,339.93C327.89,345.34 331.3,349.19 336.71,349.19C341.38,349.19 344.56,346.02 345.09,341.55L341.92,341.05C341.39,344.2 339.77,346.16 336.72,346.16C333.16,346.16 331.22,343.6 331.22,339.93C331.23,336.52 333.17,333.82 336.69,333.82Z" style="fill:white;fill-rule:nonzero;"/>
            <rect x="347.69" y="330.79" width="3.17" height="18.02" style="fill:white;"/>
            <path d="M360.54,346.4C358.28,346.4 356.92,345.25 356.63,342.93L366.77,342.93C366.83,342.2 366.83,341.64 366.83,341.08C366.83,337.29 364.71,334.64 360.51,334.64C356.22,334.64 353.45,337.4 353.45,342.08C353.45,346.64 356.27,349.16 360.51,349.16C364.15,349.16 366.04,347.34 366.74,344.69L363.68,344.69C363.19,345.7 362.31,346.4 360.54,346.4ZM360.42,337.32C362.6,337.32 363.71,338.44 363.89,340.58L356.66,340.58C357.01,338.34 358.33,337.32 360.42,337.32Z" style="fill:white;fill-rule:nonzero;"/>
            <path d="M375.8,334.7C371.89,334.7 370.07,336.61 369.66,339.7L372.77,339.7C373.16,338.01 374.1,337.35 375.69,337.35C377.6,337.35 378.37,338.38 378.37,340.26L378.37,340.82L374.26,340.82C370.79,340.82 369.26,342.64 369.26,345.17C369.26,347.82 371.05,349.11 373.61,349.11C375.99,349.11 377.67,347.82 378.31,345.35L378.37,345.35L378.37,348.82L381.51,348.82L381.51,340.24C381.5,336.7 379.8,334.7 375.8,334.7ZM378.36,343.61C378.36,345.29 376.95,346.52 374.77,346.52C372.98,346.52 372.36,345.64 372.36,344.67C372.36,343.73 373.18,343.17 374.71,343.17L378.36,343.17L378.36,343.61Z" style="fill:white;fill-rule:nonzero;"/>
            <path d="M392.24,334.64C389.92,334.64 388.15,335.84 387.53,338.78L387.5,338.78L387.5,334.99L384.33,334.99L384.33,348.81L387.5,348.81L387.5,340.64C387.5,338.67 388.73,337.49 390.76,337.49C392.91,337.49 393.64,338.96 393.64,340.64L393.64,348.81L396.81,348.81L396.81,339.82C396.82,336.82 395.56,334.64 392.24,334.64Z" style="fill:white;fill-rule:nonzero;"/>
            <path d="M442.39,334.64C439.69,334.64 438.1,336.11 437.45,338.9L437.39,338.9L437.39,330.79L434.22,330.79L434.22,348.81L437.39,348.81L437.39,344.87L437.45,344.87C438.07,347.69 439.59,349.19 442.36,349.19C445.86,349.19 447.8,346.43 447.8,341.84C447.8,337.37 445.95,334.64 442.39,334.64ZM441.09,346.34C438.8,346.34 437.39,344.63 437.39,341.99L437.39,341.76C437.39,339.03 438.8,337.5 441.09,337.5C443.53,337.5 444.65,339.09 444.65,341.85C444.65,344.66 443.48,346.34 441.09,346.34Z" style="fill:white;fill-rule:nonzero;"/>
            <path d="M428.37,343.16C428.37,345.13 427.14,346.3 425.11,346.3C422.96,346.3 422.23,344.83 422.23,343.16L422.23,334.99L419.06,334.99L419.06,344.01C419.06,346.98 420.32,349.18 423.65,349.18C425.97,349.18 427.74,347.98 428.35,345.01L428.38,345.01L428.38,348.8L431.55,348.8L431.55,334.98L428.38,334.98L428.38,343.16L428.37,343.16Z" style="fill:white;fill-rule:nonzero;"/>
            <path d="M413.08,338.37L404.56,338.37L404.56,330.77L401.2,330.77L401.2,348.81L404.56,348.81L404.56,341.55L413.08,341.55L413.08,348.81L416.43,348.81L416.43,330.79L413.08,330.79L413.08,338.37Z" style="fill:white;fill-rule:nonzero;"/>
        </g>
    </g>
</svg>
