<?xml version="1.0" encoding="UTF-8"?>
<svg width="140px" height="64px" viewBox="0 0 140 64" version="1.1" xmlns="http://www.w3.org/2000/svg" xmlns:xlink="http://www.w3.org/1999/xlink">
    <title>Group 7 Copy</title>
    <defs>
        <polygon id="path-1" points="0 0 13.32989 0 13.32989 17.3769697 0 17.3769697"></polygon>
        <polygon id="path-3" points="-1.98951966e-14 0 10.06705 0 10.06705 11.0484036 -1.98951966e-14 11.0484036"></polygon>
        <polygon id="path-5" points="0 17.3769697 140 17.3769697 140 0 0 0"></polygon>
    </defs>
    <g id="Example" stroke="none" stroke-width="1" fill="none" fill-rule="evenodd">
        <g id="Group-7">
            <g id="Group-27" transform="translate(0.000000, 23.000000)">
                <g id="Group-3">
                    <mask id="mask-2" fill="white">
                        <use xlink:href="#path-1"></use>
                    </mask>
                    <g id="Clip-2"></g>
                    <path d="M13.26479,10.7413232 C12.75239,12.2099091 11.64499,13.3878889 10.21909,13.9797071 L10.21909,10.7413232 L11.95929,9.14617172 L10.21909,7.57293939 L10.21909,5.3449596 C11.71219,5.31384848 12.91129,4.09273737 12.92949,2.58526263 C12.92949,0.673343434 11.12839,0.000919191919 10.10639,0.000919191919 C9.82779,-0.00685858586 9.54989,0.0228383838 9.27969,0.0893030303 L9.27969,0.176979798 C9.41479,0.176979798 9.61499,0.155060606 9.68009,0.155060606 C10.39339,0.155060606 10.92889,0.493747475 10.92889,1.14354545 C10.91139,1.71627273 10.43819,2.16667677 9.87119,2.149 C9.85229,2.14829293 9.83339,2.14758586 9.81449,2.14546465 C8.07429,2.14546465 5.98619,0.704454545 3.72379,0.704454545 C1.72249,0.704454545 0.34349,2.21192929 0.34349,3.74061616 C0.34349,5.2700101 1.21359,5.74021212 2.12289,6.07889899 L2.12289,5.98627273 C1.79319,5.77273737 1.60559,5.3930404 1.63569,4.99778788 C1.67069,4.27021212 2.28249,3.70950505 3.00209,3.74415152 C3.02519,3.74556566 3.04829,3.74768687 3.07139,3.74980808 C4.96419,3.74980808 8.01339,5.3449596 9.90619,5.3449596 L10.08469,5.3449596 L10.08469,7.59485859 L8.32279,9.14617172 L10.08469,10.7413232 L10.08469,14.0108182 C9.35529,14.2710202 8.58669,14.4004141 7.81389,14.3933434 C4.87249,14.4060707 3.00209,12.608697 3.00209,9.61637374 C2.99649,8.90859596 3.09309,8.20364646 3.28909,7.52485859 L4.75979,6.87435354 L4.75979,13.4656667 L7.73969,12.1476869 L7.73969,5.38879798 L3.35839,7.37071717 C3.77279,6.14677778 4.65479,5.1420303 5.80769,4.57990909 L5.80769,4.51415152 C2.84949,5.16465657 -0.00021,7.41879798 -0.00021,10.7851616 C-0.00021,14.6740505 3.24989,17.3771818 7.03479,17.3771818 C11.04159,17.3771818 13.30819,14.679 13.32989,10.7455657 L13.26479,10.7413232 Z" id="Fill-1" fill="#000000" mask="url(#mask-2)"></path>
                </g>
                <path d="M52.77188,13.676798 L52.77188,8.73720202 L51.88008,8.73720202 L51.88008,5.80215152 L57.81818,5.80215152 L57.81818,7.46730303 C58.77578,6.4349798 59.84608,5.55609091 61.33778,5.55609091 C61.54568,5.55184848 61.75358,5.55962626 61.96008,5.5780101 L61.96008,9.31275758 C61.16138,9.26679798 60.35918,9.32760606 59.57588,9.49306061 C58.96058,9.6210404 58.42228,9.99508081 58.08418,10.5303333 C57.88398,10.9128586 57.81818,11.3611414 57.81818,12.5999293 L57.81818,13.676798 L59.01938,13.676798 L59.01938,16.6033636 L51.88008,16.6033636 L51.88008,13.676798 L52.77188,13.676798 Z" id="Fill-4" fill="#000000"></path>
                <path d="M67.13735,10.6402121 L69.74765,10.6402121 L69.74765,10.3722323 C69.74765,9.44950505 69.52575,8.50415152 68.44285,8.50415152 C67.89895,8.48576768 67.40825,8.83364646 67.24165,9.35687879 C67.12825,9.77475758 67.09255,10.2096061 67.13735,10.6402121 M68.58635,16.8277879 C66.98055,16.8277879 65.19695,16.489101 63.95305,15.3641515 C62.75395,14.3056667 62.07775,12.7670808 62.10365,11.1584949 C62.10365,7.64293939 64.88825,5.57758586 68.19435,5.57758586 C71.80145,5.57758586 74.18495,8.14425253 74.18495,11.2468788 C74.18495,11.6067778 74.16325,11.9454646 74.14155,12.3060707 L67.15905,12.3060707 C67.29415,13.5667778 67.95985,14.1296061 68.98605,14.1296061 C69.66715,14.1253636 70.29785,13.769 70.65695,13.1849596 L74.13735,13.1849596 C73.41985,15.659 71.17005,16.8277879 68.58635,16.8277879" id="Fill-6" fill="#000000"></path>
                <path d="M79.72342,5.57779798 C80.85882,5.57779798 81.77232,5.8500202 82.33372,6.50052525 L82.33372,5.80193939 L85.54042,5.80193939 L85.54042,10.0118384 L82.33372,10.0118384 C82.33372,9.02335354 81.89902,8.50436364 81.26342,8.50436364 C80.46332,8.50436364 79.92782,9.38325253 79.92782,10.6185051 C79.92782,12.6661818 81.19832,13.6546667 82.97352,13.6546667 C83.84922,13.6461818 84.72002,13.5097172 85.55722,13.2502222 L85.55722,16.0629495 C84.24262,16.5996162 82.83352,16.8598182 81.41602,16.8272929 C80.12872,16.8923434 78.84912,16.5974949 77.71792,15.9752727 C75.93992,14.9061818 74.86822,12.9539596 74.91162,10.8645657 C74.91162,7.80577778 76.96052,5.57779798 79.72342,5.57779798" id="Fill-8" fill="#000000"></path>
                <path d="M91.08267,16.8276465 C88.69847,16.8276465 87.22777,15.4347172 87.22777,13.1848182 L87.22777,8.73734343 L86.29257,8.73734343 L86.29257,5.80158586 L92.26147,5.80158586 L92.26147,12.2840101 C92.26147,13.1848182 92.64017,13.6769394 93.39687,13.6769394 C94.06747,13.6769394 94.46717,13.1848182 94.46717,12.2840101 L94.46717,8.73734343 L93.46687,8.73734343 L93.46687,5.80158586 L99.50087,5.80158586 L99.50087,13.6769394 L100.39267,13.6769394 L100.39267,16.6035051 L94.46717,16.6035051 L94.46717,15.3293636 C93.66707,15.9749192 92.43997,16.8276465 91.08267,16.8276465" id="Fill-10" fill="#000000"></path>
                <polygon id="Fill-12" fill="#000000" points="100.61905 8.73741414 100.61905 5.80165657 101.62425 5.80165657 101.62425 2.42680808 106.65725 2.42680808 106.65725 5.80165657 108.14965 5.80165657 108.14965 8.73741414 106.65725 8.73741414 106.65725 13.6770101 108.14965 13.6770101 108.14965 16.6035758 101.62425 16.6035758 101.62425 8.73741414"></polygon>
                <polygon id="Fill-14" fill="#000000" points="108.79365 8.73741414 108.79365 5.80165657 109.79885 5.80165657 109.79885 2.42680808 114.83185 2.42680808 114.83185 5.80165657 116.32425 5.80165657 116.32425 8.73741414 114.83185 8.73741414 114.83185 13.6770101 116.32425 13.6770101 116.32425 16.6035758 109.79885 16.6035758 109.79885 8.73741414"></polygon>
                <path d="M122.06712,10.6402121 L124.67742,10.6402121 L124.67742,10.3722323 C124.67742,9.44950505 124.45552,8.50415152 123.37262,8.50415152 C122.82732,8.48506061 122.33592,8.83293939 122.16722,9.35687879 C122.05732,9.77546465 122.02512,10.2103131 122.07132,10.6402121 L122.06712,10.6402121 Z M123.51122,16.8277879 C121.91032,16.8277879 120.12672,16.489101 118.87792,15.3641515 C117.68162,14.3042525 117.00542,12.7663737 117.02922,11.1584949 C117.02922,7.64293939 119.81382,5.57758586 123.11992,5.57758586 C126.73122,5.57758586 129.11472,8.14425253 129.11472,11.2468788 C129.11472,11.6067778 129.09302,11.9454646 129.07132,12.3060707 L122.09302,12.3060707 C122.22392,13.5667778 122.89382,14.1296061 123.92072,14.1296061 C124.60042,14.1239495 125.23112,13.7675859 125.59092,13.1849596 L129.07132,13.1849596 C128.35382,15.659 126.12152,16.8277879 123.51122,16.8277879 L123.51122,16.8277879 Z" id="Fill-16" fill="#000000"></path>
                <g id="Group-20" transform="translate(129.932950, 5.554960)">
                    <mask id="mask-4" fill="white">
                        <use xlink:href="#path-3"></use>
                    </mask>
                    <g id="Clip-19"></g>
                    <path d="M0.8918,8.12183796 L0.8918,3.182242 L-1.98951966e-14,3.182242 L-1.98951966e-14,0.247191496 L5.9255,0.247191496 L5.9255,1.91234301 C6.8824,0.880019779 7.9527,0.00113088983 9.4451,0.00113088983 C9.6523,-0.00311153441 9.8602,0.00466624336 10.0674,0.0230500817 L10.0674,3.75779756 C9.268,3.71183796 8.4665,3.77264604 7.6832,3.93810059 C7.0686,4.06749453 6.5324,4.44153493 6.195,4.97537331 C5.9948,5.35789857 5.9297,5.80618139 5.9297,7.04496927 L5.9297,8.12183796 L7.1302,8.12183796 L7.1302,11.0484036 L-1.98951966e-14,11.0484036 L-1.98951966e-14,8.12183796 L0.8918,8.12183796 Z" id="Fill-18" fill="#000000" mask="url(#mask-4)"></path>
                </g>
                <path d="M50.20512,0.950444444 L50.20512,4.76933333 L45.20222,4.76933333 L45.20222,0.932767677 L50.20512,0.950444444 Z M45.20222,13.6946869 L45.20222,8.7770101 L44.33212,8.7770101 L44.33212,5.87236364 L50.21842,5.87236364 L50.21842,13.6946869 L51.14452,13.6946869 L51.14452,16.5993333 L44.30552,16.5993333 L44.30552,13.6946869 L45.20222,13.6946869 Z" id="Fill-21" fill="#000000"></path>
                <polygon id="Fill-23" fill="#000000" points="22.2747 4.09245455 22.2747 0.932555556 29.6443 0.932555556 29.6443 4.09245455 28.6265 4.09245455 30.184 10.4249798 32.5857 0.932555556 36.4224 0.932555556 38.7807 10.7325556 38.8199 10.7325556 40.5209 4.09245455 38.9284 4.09245455 38.9284 0.932555556 44.2799 0.932555556 44.2799 4.09245455 43.6709 4.09245455 40.1905 16.6033636 35.2828 16.6033636 33.5426 9.52417172 33.4992 9.52417172 31.7156 16.6033636 26.7729 16.6033636 23.2624 4.09245455"></polygon>
                <mask id="mask-6" fill="white">
                    <use xlink:href="#path-5"></use>
                </mask>
                <g id="Clip-26"></g>
                <polygon id="Fill-25" fill="#000000" mask="url(#mask-6)" points="17.4237 16.6387879 17.8325 16.6387879 17.8325 1.0210101 17.4237 1.0210101"></polygon>
            </g>
            <rect id="Rectangle" x="0" y="0" width="140" height="64"></rect>
        </g>
    </g>
</svg>