<svg fill="none" height="24" viewBox="0 0 113 24" width="113" xmlns="http://www.w3.org/2000/svg"><path clip-rule="evenodd" d="m10.616 13.304c-.408 1.16-1.29599 2.096-2.43999 2.568v-2.568l1.392-1.264-1.392-1.248v-1.76801c1.192-.024 2.15199-.992 2.16799-2.184 0-1.504-1.43999-2.04-2.25599-2.04-.224 0-.448.016-.664.072v.072c.112 0 .272-.016.32-.016.568 0 1 .272 1 .784-.016.456-.392.808-.848.8-.016 0-.032 0-.048 0-1.392 0-3.06401-1.144-4.87201-1.144-1.6-.008-2.704 1.184-2.704 2.392s.696001 1.584 1.424 1.848v-.072c-.264-.168-.416-.472-.392-.784.032-.576.52-1.024 1.096-.992h.056c1.512 0 3.95201 1.264 5.46401 1.264h.144v1.78401l-1.408 1.232 1.408 1.264v2.592c-.584.208-1.2.312-1.816.304-2.35201.008-3.84801-1.416-3.84801-3.784 0-.56.072-1.12.232-1.656l1.176-.512v5.224l2.38401-1.04v-5.35201l-3.50401 1.56801c.328-.96801 1.04-1.76801 1.96-2.20801v-.056c-2.368.504-4.648 2.28801-4.648 4.96001 0 3.08 2.6 5.224 5.62401 5.224 3.208 0 5.01599-2.136 5.03999-5.256h-.056zm31.608 2.328v-3.912h-.712v-2.32801h4.752v1.32001c.768-.81601 1.624-1.51201 2.816-1.51201.168 0 .336 0 .496.016v2.96001c-.6399-.04-1.28.008-1.904.144-.496.104-.92.4-1.192.824-.16.304-.216.656-.216 1.64v.856h.96v2.32h-5.712v-2.32h.712zm11.4961-2.408h2.088v-.216c0-.728-.176-1.48-1.04-1.48-.432-.016-.824.264-.96.672-.088.328-.12.672-.08 1.016m1.16 4.904c-1.288 0-2.712-.272-3.704-1.16-.9601-.84-1.5041-2.056-1.4801-3.328 0-2.784 2.2241-4.42401 4.8721-4.42401 2.888 0 4.792 2.03201 4.792 4.48801 0 .288-.016.552-.032.84h-5.584c.112 1 .64 1.448 1.464 1.448.544 0 1.048-.288 1.336-.752h2.784c-.576 1.96-2.376 2.888-4.44 2.888m8.912-8.91201c.912 0 1.64.216 2.088.728v-.552h2.568v3.33601h-2.568c0-.784-.344-1.192-.856-1.192-.64 0-1.072.696-1.072 1.672 0 1.624 1.016 2.408 2.44 2.408.704 0 1.4-.112 2.064-.32v2.224c-1.048.424-2.176.632-3.312.608-1.032.048-2.056-.184-2.96-.672-1.424-.848-2.28-2.392-2.248-4.048 0-2.424 1.64-4.18401 3.848-4.18401m9.088 8.91201c-1.904 0-3.08-1.104-3.08-2.888v-3.52h-.752v-2.32801h4.776v5.13601c0 .712.304 1.104.912 1.104.536 0 .856-.392.856-1.104v-2.808h-.8v-2.32801h4.824v6.24001h.712v2.32h-4.744v-1.008c-.64.512-1.624 1.184-2.704 1.184zm7.632-6.408v-2.32801h.8v-2.672h4.024v2.672h1.192v2.32801h-1.192v3.912h1.192v2.32h-5.224v-6.232h-.8zm6.536 0v-2.32801h.808v-2.672h4.024v2.672h1.192v2.32801h-1.192v3.912h1.192v2.32h-5.216v-6.232zm10.616 1.504h2.088v-.216c0-.728-.176-1.48-1.04-1.48-.44-.016-.832.264-.968.672-.088.328-.112.672-.08 1.016zm1.152 4.904c-1.28 0-2.704-.272-3.704-1.16-.96-.84-1.496-2.056-1.48-3.328 0-2.784 2.232-4.42401 4.872-4.42401 2.8879 0 4.7999 2.03201 4.7999 4.48801 0 .288-.016.552-.032.84h-5.5839c.104 1 .64 1.448 1.464 1.448.544 0 1.0479-.288 1.3359-.752h2.784c-.576 1.96-2.36 2.888-4.4479 2.888zm5.8479-2.496v-3.912h-.712v-2.32801h4.744v1.32001c.768-.81601 1.624-1.51201 2.816-1.51201.168 0 .328 0 .496.016v2.96001c-.64-.04-1.28.008-1.904.144-.488.104-.92.4-1.192.824-.16.304-.208.656-.208 1.64v.856h.96v2.32h-5.704v-2.32h.712zm-64.504-10.08001v3.024h-4v-3.04zm-4 10.09601v-3.896h-.696v-2.30401h4.712v6.19201h.744v2.304h-5.472v-2.304h.72zm-18.344-7.60801v-2.504h5.896v2.504h-.816l1.248 5.01601 1.92-7.52001h3.072l1.888 7.76001h.032l1.36-5.25601h-1.272v-2.504h4.28v2.504h-.488l-2.784 9.91201h-3.928l-1.392-5.608h-.032l-1.424 5.608h-3.952l-2.808-9.91201h-.792zm-3.88 9.93601h.328v-12.36801h-.328z" fill="#fff" fill-rule="evenodd"/></svg>